<?xml version="1.0" encoding="UTF-8"?>
<svg version="1.1" xmlns="http://www.w3.org/2000/svg" width="500" height="500">
<path d="M0 0 C0.68148102 -0.00163147 1.36296204 -0.00326294 2.06509399 -0.00494385 C15.49399442 -0.00129926 28.576947 1.51293257 41.625 4.6875 C42.52259033 4.9055127 43.42018066 5.12352539 44.3449707 5.34814453 C56.07378013 8.30935225 70.20617366 13.5381572 76.875 24.375 C80.77682065 32.95900543 78.97596918 41.81041844 75.875 50.375 C71.63333356 59.76322172 71.63333356 59.76322172 66.875 62.375 C60.62259959 63.20865339 56.08049728 61.08605896 50.5 58.625 C41.40458148 54.80743908 32.55385729 52.20483372 22.875 50.375 C21.75480469 50.15070313 20.63460937 49.92640625 19.48046875 49.6953125 C2.68168585 46.78591475 -17.141569 45.86306141 -32.21484375 54.91796875 C-36.40584798 58.11478793 -39.12111004 62.1648111 -40.125 67.375 C-40.48807314 73.00263372 -40.34758504 76.54112244 -37.125 81.375 C-33.03132621 85.19383747 -29.1993816 87.53209976 -23.8984375 89.40234375 C-23.20785248 89.65306137 -22.51726746 89.90377899 -21.80575562 90.16209412 C-13.61326311 93.04260478 -5.20367974 94.9963172 3.25 96.9375 C6.3632034 97.66280877 9.4749494 98.39415672 12.5859375 99.12890625 C13.34688721 99.30824203 14.10783691 99.48757782 14.8918457 99.67234802 C20.53005089 101.01646279 26.12614584 102.48839048 31.7109375 104.0390625 C32.45346771 104.2451564 33.19599792 104.45125031 33.96102905 104.66358948 C45.73736964 107.98023895 58.50619005 113.22921204 67.875 121.375 C67.875 122.035 67.875 122.695 67.875 123.375 C68.535 123.375 69.195 123.375 69.875 123.375 C69.875 124.035 69.875 124.695 69.875 125.375 C70.535 125.375 71.195 125.375 71.875 125.375 C71.875 126.035 71.875 126.695 71.875 127.375 C72.535 127.375 73.195 127.375 73.875 127.375 C86.60928192 144.15539613 88.95696071 162.19328937 86.60253906 182.75439453 C84.53839668 195.10124056 77.85674284 208.60710818 68.875 217.375 C68.215 217.375 67.555 217.375 66.875 217.375 C66.875 218.035 66.875 218.695 66.875 219.375 C66.215 219.375 65.555 219.375 64.875 219.375 C64.875 220.035 64.875 220.695 64.875 221.375 C39.0593126 243.53536883 2.47453177 244.19782653 -29.671875 242.06640625 C-51.14387993 240.24927773 -80.68305913 235.2151372 -95.875 218.625 C-99.69664702 214.03260064 -100.5281859 210.32879762 -100.4765625 204.4609375 C-99.35939954 194.65472933 -95.07820807 183.82770079 -89.3125 175.875 C-86.11525023 173.68260016 -83.96128958 174.05952847 -80.125 174.375 C-77.40896249 175.31570254 -74.91995762 176.60943332 -72.375 177.9375 C-52.04864269 187.97509657 -30.93254348 194.60526559 -8.125 194.5 C-7.28710938 194.50386719 -6.44921875 194.50773438 -5.5859375 194.51171875 C5.69926824 194.49424939 18.40820229 193.84179771 26.875 185.375 C27.205 184.715 27.535 184.055 27.875 183.375 C28.535 183.375 29.195 183.375 29.875 183.375 C33.05102616 175.62334293 33.53229383 170.74422918 30.5 162.75 C25.2061129 154.3944599 12.72837489 151.77915365 3.8125 149.375 C2.60094238 149.03742676 1.38938477 148.69985352 0.14111328 148.35205078 C-8.10771906 146.08991155 -16.40313519 144.11263099 -24.75 142.25 C-50.03470326 136.59221595 -73.88577629 128.324103 -88.84375 105.78515625 C-97.65917427 91.07117604 -98.18121253 71.83902843 -94.8828125 55.27734375 C-92.55238423 46.35204373 -89.64445752 37.83372638 -84.125 30.375 C-83.465 30.375 -82.805 30.375 -82.125 30.375 C-81.91875 29.83875 -81.7125 29.3025 -81.5 28.75 C-79.59249574 25.45521991 -77.07680616 22.78136372 -74.125 20.375 C-73.465 20.375 -72.805 20.375 -72.125 20.375 C-72.125 19.715 -72.125 19.055 -72.125 18.375 C-64.94156026 12.65991868 -56.72951862 9.3241739 -48.125 6.375 C-46.78308594 5.87806641 -46.78308594 5.87806641 -45.4140625 5.37109375 C-30.7012703 0.91531939 -15.27814847 -0.0170094 0 0 Z " fill="#FC7002" transform="translate(253.125,120.625)"/>
<path d="M0 0 C2.17232664 -0.00216009 4.34412218 -0.02027146 6.51635742 -0.03930664 C19.62116287 -0.0936993 32.26095314 1.39865636 45.0222168 4.49780273 C45.91255615 4.71073975 46.80289551 4.92367676 47.72021484 5.14306641 C54.3096785 6.78787453 60.2997395 8.89834216 66.2722168 12.18530273 C66.2722168 12.51530273 66.2722168 12.84530273 66.2722168 13.18530273 C63.85385783 13.09807337 61.43908364 12.991189 59.0222168 12.87280273 C57.9993457 12.83896484 57.9993457 12.83896484 56.95581055 12.80444336 C52.61814395 12.57282039 50.62330038 11.78663026 47.2722168 9.18530273 C44.6156272 8.51398312 42.09153306 7.98545207 39.3972168 7.56030273 C38.65141357 7.43478027 37.90561035 7.30925781 37.13720703 7.17993164 C31.07913247 6.2057495 25.06235547 5.69183066 18.93237305 5.39624023 C16.2722168 5.18530273 16.2722168 5.18530273 14.2722168 4.18530273 C12.75264039 4.03406442 11.22749178 3.9364858 9.7019043 3.86889648 C8.80600586 3.82700195 7.91010742 3.78510742 6.98706055 3.74194336 C6.04991211 3.70262695 5.11276367 3.66331055 4.1472168 3.62280273 C3.20233398 3.57961914 2.25745117 3.53643555 1.28393555 3.49194336 C-1.05315412 3.38571201 -3.39035151 3.28367097 -5.7277832 3.18530273 C-5.7277832 2.85530273 -5.7277832 2.52530273 -5.7277832 2.18530273 C-10.3477832 2.18530273 -14.9677832 2.18530273 -19.7277832 2.18530273 C-19.7277832 1.85530273 -19.7277832 1.52530273 -19.7277832 1.18530273 C-13.16267958 -0.0773383 -6.65566893 -0.0007378 0 0 Z " fill="#C07017" transform="translate(249.727783203125,120.814697265625)"/>
<path d="M0 0 C3.51867187 1.36374561 6.87470702 2.87456128 10 5 C10.33 5.99 10.66 6.98 11 8 C7.33827525 7.37321829 4.1181005 6.35548154 0.6875 4.9375 C-0.19550781 4.57527344 -1.07851562 4.21304687 -1.98828125 3.83984375 C-2.65214844 3.56269531 -3.31601563 3.28554688 -4 3 C-4.66 4.32 -5.32 5.64 -6 7 C-6.99 7 -7.98 7 -9 7 C-9 7.99 -9 8.98 -9 10 C-8.34 10.33 -7.68 10.66 -7 11 C-8.25 13.9375 -8.25 13.9375 -10 17 C-12.1875 17.875 -12.1875 17.875 -14 18 C-16.63704091 24.9222324 -17.89114094 34.48308259 -14.984375 41.42578125 C-14.65953125 41.94527344 -14.3346875 42.46476562 -14 43 C-14.99 43 -15.98 43 -17 43 C-20.38976303 37.63287521 -20.87106505 33.1539133 -20 27 C-12.33859172 -1.79108589 -12.33859172 -1.79108589 0 0 Z " fill="#EA7C22" transform="translate(173,295)"/>
<path d="M0 0 C0.66 0.33 1.32 0.66 2 1 C1.55239601 6.07284516 -0.77197462 8.28777082 -4 12 C-4.33 12.99 -4.66 13.98 -5 15 C-5.66 15 -6.32 15 -7 15 C-9.2236068 16.9254644 -9.2236068 16.9254644 -10 20 C-10.66 20 -11.32 20 -12 20 C-12.268125 20.78375 -12.53625 21.5675 -12.8125 22.375 C-14 25 -14 25 -17 27 C-17.57993699 29.19454681 -17.57993699 29.19454681 -17.6875 31.625 C-17.75324219 32.44226563 -17.81898438 33.25953125 -17.88671875 34.1015625 C-17.92410156 34.72804687 -17.96148437 35.35453125 -18 36 C-18.99 36 -19.98 36 -21 36 C-22.48422638 29.03058916 -21.7368672 25.01034585 -18 19 C-17.46375 18.01 -16.9275 17.02 -16.375 16 C-15.92125 15.34 -15.4675 14.68 -15 14 C-14.34 14 -13.68 14 -13 14 C-12.79375 13.46375 -12.5875 12.9275 -12.375 12.375 C-10.46749574 9.08021991 -7.95180616 6.40636372 -5 4 C-4.34 4 -3.68 4 -3 4 C-3 3.34 -3 2.68 -3 2 C-2.01 1.34 -1.02 0.68 0 0 Z " fill="#F89012" transform="translate(184,137)"/>
<path d="M0 0 C2.64 0 5.28 0 8 0 C-2.69787232 10.69787232 -27.51880605 10.10665653 -41.67211914 10.18969727 C-42.93531982 10.18897217 -44.19852051 10.18824707 -45.5 10.1875 C-46.81411865 10.18741943 -48.1282373 10.18733887 -49.48217773 10.18725586 C-61.41089609 10.11778806 -73.30799631 9.52984875 -85 7 C-85 6.67 -85 6.34 -85 6 C-83.10424749 5.97278824 -81.20838021 5.95350864 -79.3125 5.9375 C-78.25675781 5.92589844 -77.20101562 5.91429687 -76.11328125 5.90234375 C-73 6 -73 6 -70.81152344 6.49560547 C-67.17112219 7.14870281 -63.58787812 7.16204148 -59.90234375 7.16796875 C-58.72722481 7.174049 -58.72722481 7.174049 -57.52836609 7.18025208 C-54.99803561 7.1896806 -52.46784562 7.18965323 -49.9375 7.1875 C-48.65501373 7.18858765 -48.65501373 7.18858765 -47.34661865 7.18969727 C-34.79776352 7.18851584 -22.43977914 6.79081653 -10 5 C-10 4.01 -10 3.02 -10 2 C-6.7 2 -3.4 2 0 2 C0 1.34 0 0.68 0 0 Z " fill="#AF4412" transform="translate(290,353)"/>
<path d="M0 0 C1.11906738 0.00604248 2.23813477 0.01208496 3.39111328 0.01831055 C14.48244247 0.15102043 24.78267873 1.37431323 35.453125 4.53125 C38.67460183 5.44037843 41.92634724 6.05276552 45.22265625 6.625 C47 7.25 47 7.25 49 10.25 C43.69757475 9.25286251 38.46657302 8.13127001 33.25 6.75 C16.0478981 2.46036193 -1.43504903 2.19064458 -19 4.25 C-18 2.25 -18 2.25 -15.6875 1.140625 C-10.44100304 -0.1265374 -5.37813748 -0.04584773 0 0 Z " fill="#CA5912" transform="translate(249,165.75)"/>
<path d="M0 0 C0.99 0.86625 1.98 1.7325 3 2.625 C11.00313453 8.66672231 21.44191884 11.36500233 31 14 C28.53576324 15.61123173 27.22357273 16.0152436 24.25 15.8125 C20.34194096 14.83548524 16.7445897 13.4849235 13 12 C13 12.66 13 13.32 13 14 C6.69877366 12.42469342 4.68034783 9.58053416 1.25 4.3125 C0 2 0 2 0 0 Z " fill="#DE7814" transform="translate(214,201)"/>
<path d="M0 0 C-0.33 0.99 -0.66 1.98 -1 3 C-2.32 3 -3.64 3 -5 3 C-5.33 3.99 -5.66 4.98 -6 6 C-7.08667969 6.18175781 -7.08667969 6.18175781 -8.1953125 6.3671875 C-13.28497573 7.24939579 -18.14883346 8.16442347 -23 10 C-23.33 11.65 -23.66 13.3 -24 15 C-25.32 14.67 -26.64 14.34 -28 14 C-28 13.34 -28 12.68 -28 12 C-28.66 11.67 -29.32 11.34 -30 11 C-23.86090741 7.38179084 -17.68057853 4.47386611 -11 2 C-9.906875 1.5875 -8.81375 1.175 -7.6875 0.75 C-4.98949675 -0.00293114 -2.78554368 -0.16385551 0 0 Z " fill="#B36F1E" transform="translate(216,125)"/>
<path d="M0 0 C1.98 0 3.96 0 6 0 C6 0.66 6 1.32 6 2 C6.99 2.33 7.98 2.66 9 3 C9.33 3.66 9.66 4.32 10 5 C11.485 5.2475 11.485 5.2475 13 5.5 C14.485 5.7475 14.485 5.7475 16 6 C16.33 6.66 16.66 7.32 17 8 C19.3140622 8.73075648 21.64828869 9.40138258 24 10 C24 10.99 24 11.98 24 13 C24.66 13.33 25.32 13.66 26 14 C20.67786264 13.43275025 16.58411176 11.62639777 11.875 9.25 C11.17246094 8.91484375 10.46992188 8.5796875 9.74609375 8.234375 C5.45962042 6.09518982 2.74393587 4.06614331 0 0 Z " fill="#B54711" transform="translate(158,339)"/>
<path d="M0 0 C1 3 1 3 0.14453125 5.15625 C-0.29503906 5.9296875 -0.73460937 6.703125 -1.1875 7.5 C-1.61417969 8.2734375 -2.04085938 9.046875 -2.48046875 9.84375 C-4.18718241 12.26561617 -5.38370444 13.5901827 -8 15 C-13.70358493 15.65731591 -17.8249849 14.2276317 -22.9375 12 C-23.62134766 11.71382812 -24.30519531 11.42765625 -25.00976562 11.1328125 C-26.67785269 10.43291583 -28.33962483 9.71800007 -30 9 C-27.65890069 8.1638931 -26.50642538 7.76440211 -24.203125 8.8359375 C-23.47609375 9.22007812 -22.7490625 9.60421875 -22 10 C-19.59541122 10.59298682 -17.17678857 11.13065418 -14.75 11.625 C-13.48671875 11.88539063 -12.2234375 12.14578125 -10.921875 12.4140625 C-9.95765625 12.60742188 -8.9934375 12.80078125 -8 13 C-7.67 11.02 -7.34 9.04 -7 7 C-5.68 7 -4.36 7 -3 7 C-3 5.35 -3 3.7 -3 2 C-2.01 2 -1.02 2 0 2 C0 1.34 0 0.68 0 0 Z " fill="#CD5D18" transform="translate(328,168)"/>
<path d="M0 0 C7.75 0.75 7.75 0.75 10 3 C10.33 2.01 10.66 1.02 11 0 C12.32 0 13.64 0 15 0 C14.814375 0.598125 14.62875 1.19625 14.4375 1.8125 C13.77906313 4.16408762 13.77906313 4.16408762 15 7 C15.99 6.67 16.98 6.34 18 6 C18.25 13.625 18.25 13.625 16 17 C15.608125 15.948125 15.21625 14.89625 14.8125 13.8125 C11.80502389 6.90644376 6.61466941 3.93802934 0 1 C0 0.67 0 0.34 0 0 Z " fill="#D7560A" transform="translate(270,273)"/>
<path d="M0 0 C1.03042947 3.44698827 1.19794703 6.70925282 1.31640625 10.296875 C1.35830078 11.50214844 1.40019531 12.70742187 1.44335938 13.94921875 C1.48267578 15.20347656 1.52199219 16.45773438 1.5625 17.75 C1.60568359 19.01972656 1.64886719 20.28945312 1.69335938 21.59765625 C1.79939722 24.73166365 1.90146058 27.86574933 2 31 C0.68 31 -0.64 31 -2 31 C-2.1982842 20.46890579 -2.31290989 10.34614155 0 0 Z " fill="#C37421" transform="translate(159,173)"/>
<path d="M0 0 C0.66 0.33 1.32 0.66 2 1 C0.63924722 6.6131052 -3.62621194 9.61031425 -8 13 C-8.99 13.495 -8.99 13.495 -10 14 C-10 13.34 -10 12.68 -10 12 C-12.31 12.33 -14.62 12.66 -17 13 C-17 12.01 -17 11.02 -17 10 C-16.26394531 9.75765625 -15.52789062 9.5153125 -14.76953125 9.265625 C-5.98471632 6.53878885 -5.98471632 6.53878885 0 0 Z " fill="#C3691F" transform="translate(281,304)"/>
<path d="M0 0 C1.58357459 0.31127516 3.16684993 0.62407289 4.75 0.9375 C5.63171875 1.11152344 6.5134375 1.28554687 7.421875 1.46484375 C9.63235053 1.92368488 11.81512068 2.43336074 14 3 C14 3.66 14 4.32 14 5 C14.804375 4.979375 15.60875 4.95875 16.4375 4.9375 C19 5 19 5 20 6 C21.51165654 6.39148761 23.03469632 6.73972457 24.5625 7.0625 C25.38878906 7.23910156 26.21507812 7.41570312 27.06640625 7.59765625 C27.70449219 7.73042969 28.34257812 7.86320312 29 8 C28.67 8.66 28.34 9.32 28 10 C18.73689609 8.99314088 9.34468629 6.16391417 1 2 C0.67 1.34 0.34 0.68 0 0 Z " fill="#9E3E10" transform="translate(193,250)"/>
<path d="M0 0 C8.54011956 0.44947998 16.01533633 3.14908583 24 6 C24 6.33 24 6.66 24 7 C22.083412 7.02712153 20.1667127 7.04645097 18.25 7.0625 C16.64898437 7.07990234 16.64898437 7.07990234 15.015625 7.09765625 C12.46631499 7.01510087 10.42066409 6.74617558 8 6 C8 5.34 8 4.68 8 4 C7.4225 3.855625 6.845 3.71125 6.25 3.5625 C4.16666667 3.04166667 2.08333333 2.52083333 0 2 C0 1.34 0 0.68 0 0 Z " fill="#CE711A" transform="translate(271,222)"/>
<path d="M0 0 C5.11940234 0.12960512 9.82957067 2.60128849 14 5.4375 C14.33 6.4275 14.66 7.4175 15 8.4375 C11.94657279 7.98846659 9.93514929 7.39917912 7.25 5.8125 C2.92295748 3.98182817 -0.4759306 4.46030101 -5 5.4375 C-5.99 5.9325 -5.99 5.9325 -7 6.4375 C-4.2876304 0.62527943 -4.2876304 0.62527943 0 0 Z " fill="#AF5C1A" transform="translate(169,294.5625)"/>
<path d="M0 0 C9 1 9 1 10.84790039 1.25610352 C17.75392403 2.15205018 24.60779144 2.11253387 31.5625 2.0625 C33.36170898 2.05573242 33.36170898 2.05573242 35.19726562 2.04882812 C38.13156359 2.03713769 41.06575449 2.02075138 44 2 C40.46137017 4.35908655 38.7430856 4.3131465 34.5390625 4.44921875 C33.26289063 4.49240234 31.98671875 4.53558594 30.671875 4.58007812 C30.00736328 4.59756104 29.34285156 4.61504395 28.65820312 4.63305664 C26.63877407 4.68713117 24.62039895 4.75741381 22.6015625 4.83007812 C11.80287208 5.16209431 11.80287208 5.16209431 7 4 C7 3.34 7 2.68 7 2 C4.69 1.67 2.38 1.34 0 1 C0 0.67 0 0.34 0 0 Z " fill="#8B420F" transform="translate(217,313)"/>
<path d="M0 0 C0.33 0 0.66 0 1 0 C1 11.5 1 11.5 0 15 C-0.598125 15.061875 -1.19625 15.12375 -1.8125 15.1875 C-4.85754676 16.31851737 -5.44490515 18.24324095 -7 21 C-7.66 21 -8.32 21 -9 21 C-8.6875 18.625 -8.6875 18.625 -8 16 C-7.01 15.34 -6.02 14.68 -5 14 C-3.98603527 11.61789694 -3.11542608 9.32501613 -2.3125 6.875 C-2.08755859 6.21628906 -1.86261719 5.55757813 -1.63085938 4.87890625 C-1.078032 3.25571099 -0.53778691 1.62824021 0 0 Z " fill="#DE6B14" transform="translate(286,295)"/>
<path d="M0 0 C7.88734847 -0.31088819 14.89651854 -0.18124265 22.453125 2.2109375 C25.66728119 3.20673436 28.91076239 3.80006002 32.22265625 4.375 C34 5 34 5 36 8 C30.69757475 7.00286251 25.46657302 5.88127001 20.25 4.5 C13.57324691 2.78734328 6.8319813 1.8590509 0 1 C0 0.67 0 0.34 0 0 Z " fill="#9B390E" transform="translate(262,168)"/>
<path d="M0 0 C5.6555181 0.60503854 11.00213991 1.62185703 16.5 3.0625 C17.59054687 3.3419043 17.59054687 3.3419043 18.703125 3.62695312 C20.46987724 4.08026455 22.23510775 4.5395002 24 5 C24 5.33 24 5.66 24 6 C21.72923158 6.02699725 19.45837179 6.04639453 17.1875 6.0625 C15.29064453 6.07990234 15.29064453 6.07990234 13.35546875 6.09765625 C10 6 10 6 7 5 C7 4.34 7 3.68 7 3 C5.35 3 3.7 3 2 3 C2 2.34 2 1.68 2 1 C1.34 0.67 0.68 0.34 0 0 Z " fill="#B9661A" transform="translate(246,216)"/>
<path d="M0 0 C0.81359047 2.76979698 0.9803076 4.12061597 0.5 7.0625 C-0.31678688 13.49469672 -0.29321936 20.26038911 3 26 C2.01 26 1.02 26 0 26 C-3.36897084 20.66579617 -3.69548403 16.11669289 -3 10 C-2.19187766 6.59102414 -1.17885129 3.29797683 0 0 Z " fill="#9A4B16" transform="translate(156,312)"/>
<path d="M0 0 C0 0.99 0 1.98 0 3 C-0.598125 3.5775 -1.19625 4.155 -1.8125 4.75 C-4.61233219 7.62982739 -5.56427771 10.26712205 -7 14 C-7.66 14 -8.32 14 -9 14 C-9.268125 14.928125 -9.53625 15.85625 -9.8125 16.8125 C-10.91148371 19.76240366 -11.62418561 21.05615186 -14 23 C-14.33 22.34 -14.66 21.68 -15 21 C-13.93859701 18.20456073 -12.43339391 15.62120634 -11 13 C-10.46375 12.01 -9.9275 11.02 -9.375 10 C-8.92125 9.34 -8.4675 8.68 -8 8 C-7.34 8 -6.68 8 -6 8 C-5.7525 7.4225 -5.505 6.845 -5.25 6.25 C-3.83316683 3.6997003 -2.12372463 1.98214299 0 0 Z " fill="#935821" transform="translate(177,143)"/>
<path d="M0 0 C5.08722279 0.58195736 9.52638942 1.69551518 14.375 3.4375 C16.21191406 4.08525391 16.21191406 4.08525391 18.0859375 4.74609375 C21 6 21 6 22 8 C16.04492601 7.6083965 11.37180176 6.62875405 6 4 C6 3.34 6 2.68 6 2 C4.02 2 2.04 2 0 2 C0 1.34 0 0.68 0 0 Z " fill="#BB7021" transform="translate(294,126)"/>
<path d="M0 0 C4.66666667 0.66666667 9.33333333 1.33333333 14 2 C14 2.99 14 3.98 14 5 C14.928125 4.938125 15.85625 4.87625 16.8125 4.8125 C20 5 20 5 21.875 6.375 C23 8 23 8 23 10 C21.9790625 9.566875 21.9790625 9.566875 20.9375 9.125 C16.67100196 7.49102203 12.27183165 6.35611286 7.875 5.125 C4.69745976 3.88161469 2.54662777 2.2470245 0 0 Z " fill="#D37D1B" transform="translate(280,123)"/>
<path d="M0 0 C0.66 0.33 1.32 0.66 2 1 C1.6999825 4.50020422 1.04266259 5.94904191 -1.25 8.6875 C-3.83562327 10.86177411 -5.80636682 11.99628672 -9 13 C-8.34 12.01 -7.68 11.02 -7 10 C-6.29835358 8.01200182 -5.62627128 6.01301483 -5 4 C-4.34 4 -3.68 4 -3 4 C-3 3.34 -3 2.68 -3 2 C-2.01 1.34 -1.02 0.68 0 0 Z " fill="#DC8A21" transform="translate(184,137)"/>
<path d="M0 0 C2.64 0 5.28 0 8 0 C4.12807146 3.87192854 -2.11628902 5.70308124 -7.50390625 6.2578125 C-9.33794025 6.25125066 -11.1711554 6.13802601 -13 6 C-12.01 5.67 -11.02 5.34 -10 5 C-10 4.01 -10 3.02 -10 2 C-6.7 2 -3.4 2 0 2 C0 1.34 0 0.68 0 0 Z " fill="#C64A14" transform="translate(290,353)"/>
<path d="M0 0 C1.9375 0.6875 1.9375 0.6875 4 2 C4.5 4.5 4.5 4.5 5 7 C6.83284443 8.12516085 6.83284443 8.12516085 9 9 C10.33333333 10.33333333 11.66666667 11.66666667 13 13 C13.99 13.33 14.98 13.66 16 14 C16.33 15.65 16.66 17.3 17 19 C10.21903536 16.23738478 3.71204338 8.65754722 0.625 2.0625 C0.41875 1.381875 0.2125 0.70125 0 0 Z " fill="#B45315" transform="translate(164,224)"/>
<path d="M0 0 C5.21866239 -0.19553128 9.59142434 0.44390051 14.625 1.8125 C15.89601563 2.14894531 17.16703125 2.48539062 18.4765625 2.83203125 C21.69179205 3.89783351 24.19687319 5.12587882 27 7 C23.36545309 8.21151564 22.07878256 7.65868046 18.45703125 6.56640625 C17.38388672 6.24736328 16.31074219 5.92832031 15.20507812 5.59960938 C14.08552734 5.25736328 12.96597656 4.91511719 11.8125 4.5625 C10.68134766 4.22412109 9.55019531 3.88574219 8.38476562 3.53710938 C5.58743231 2.69908969 2.792762 1.85310671 0 1 C0 0.67 0 0.34 0 0 Z " fill="#8F350F" transform="translate(242,265)"/>
<path d="M0 0 C6.68993219 0.53951066 12.63460728 1.88706171 19 4 C15.13473583 6.13454887 13.34807308 6.06650849 9 5 C5.97786577 4.06022013 2.98397413 3.05433752 0 2 C0 1.34 0 0.68 0 0 Z " fill="#B6651E" transform="translate(226,211)"/>
<path d="M0 0 C0.66 0 1.32 0 2 0 C2 0.99 2 1.98 2 3 C2.99 3.33 3.98 3.66 5 4 C4.67 7.3 4.34 10.6 4 14 C4.66 14 5.32 14 6 14 C5.67 15.65 5.34 17.3 5 19 C1.79959408 15.79959408 1.01553888 13.91679412 0.9375 9.3125 C0.958125 8.219375 0.97875 7.12625 1 6 C0.67 5.67 0.34 5.34 0 5 C-0.04063832 3.33382885 -0.042721 1.66611905 0 0 Z " fill="#F68817" transform="translate(159,205)"/>
<path d="M0 0 C0.33 0.66 0.66 1.32 1 2 C-0.11733729 3.50571657 -1.24410035 5.00444292 -2.375 6.5 C-3.00148438 7.3353125 -3.62796875 8.170625 -4.2734375 9.03125 C-4.84320313 9.6809375 -5.41296875 10.330625 -6 11 C-6.66 11 -7.32 11 -8 11 C-8 11.66 -8 12.32 -8 13 C-8.66 12.67 -9.32 12.34 -10 12 C-9.34 10.68 -8.68 9.36 -8 8 C-7.34 8 -6.68 8 -6 8 C-6.33 6.35 -6.66 4.7 -7 3 C-5.68 3 -4.36 3 -3 3 C-3 2.34 -3 1.68 -3 1 C-2.01 0.67 -1.02 0.34 0 0 Z " fill="#AF420E" transform="translate(328,327)"/>
<path d="M0 0 C3.03030913 3.03030913 3.15004054 6.08450859 3.1875 10.25 C3.15000657 14.77170712 2.26017084 18.66816273 1 23 C0.15808218 20.0751367 -0.11819313 17.49258344 -0.09765625 14.453125 C-0.09443359 13.60878906 -0.09121094 12.76445312 -0.08789062 11.89453125 C-0.07951172 11.02183594 -0.07113281 10.14914063 -0.0625 9.25 C-0.05798828 8.36183594 -0.05347656 7.47367188 -0.04882812 6.55859375 C-0.037074 4.37232671 -0.02064249 2.18619821 0 0 Z " fill="#863810" transform="translate(329,145)"/>
<path d="M0 0 C2.45873768 0.14058476 4.91685175 0.28722999 7.375 0.4375 C8.07367188 0.47681641 8.77234375 0.51613281 9.4921875 0.55664062 C14.7734375 0.88671875 14.7734375 0.88671875 17 2 C17 2.66 17 3.32 17 4 C18.32 4.33 19.64 4.66 21 5 C13.69303751 4.54034292 7.00242552 3.11670277 0 1 C0 0.67 0 0.34 0 0 Z " fill="#882E0B" transform="translate(221,260)"/>
<path d="M0 0 C3.67990594 3.3203749 5.4938408 7.32599508 7 12 C6.75 15.0625 6.75 15.0625 6 17 C4.58041178 14.18640173 3.19753949 11.36060393 1.875 8.5 C1.52179688 7.7471875 1.16859375 6.994375 0.8046875 6.21875 C0 4 0 4 0 0 Z " fill="#AE5218" transform="translate(330,254)"/>
<path d="M0 0 C4.47914524 0.57424939 8.4976977 1.7667887 12.7421875 3.234375 C15.79980211 4.27121317 18.88867188 5.13941988 22 6 C22 6.33 22 6.66 22 7 C16.26410029 7.35802755 12.2949644 6.27989617 7.0625 4 C6.37865234 3.71382812 5.69480469 3.42765625 4.99023438 3.1328125 C3.32214731 2.43291583 1.66037517 1.71800007 0 1 C0 0.67 0 0.34 0 0 Z " fill="#651D05" transform="translate(298,176)"/>
<path d="M0 0 C0.66 0.33 1.32 0.66 2 1 C3.37634409 7.99641577 3.37634409 7.99641577 2.0625 11.5 C1.711875 11.995 1.36125 12.49 1 13 C0.34 12.67 -0.32 12.34 -1 12 C-0.67 8.04 -0.34 4.08 0 0 Z " fill="#F37913" transform="translate(327,144)"/>
<path d="M0 0 C-0.33 0.99 -0.66 1.98 -1 3 C-0.01 3.33 0.98 3.66 2 4 C2.33 4.99 2.66 5.98 3 7 C-1.10811428 5.55007731 -4.46855666 3.54592427 -8 1 C-8 0.67 -8 0.34 -8 0 C-2.25 -1.125 -2.25 -1.125 0 0 Z " fill="#AF4A0B" transform="translate(189,243)"/>
<path d="M0 0 C0 0.99 0 1.98 0 3 C0.99 2.67 1.98 2.34 3 2 C2.67 3.65 2.34 5.3 2 7 C1.34 7 0.68 7 0 7 C-0.66 7.66 -1.32 8.32 -2 9 C-2.99 8.67 -3.98 8.34 -5 8 C-4.45773019 4.20411134 -2.79872437 2.52788007 0 0 Z " fill="#FC9F24" transform="translate(177,145)"/>
<path d="M0 0 C-1.32 0.33 -2.64 0.66 -4 1 C-4.33 2.65 -4.66 4.3 -5 6 C-6.32 5.67 -7.64 5.34 -9 5 C-9 4.34 -9 3.68 -9 3 C-9.66 2.67 -10.32 2.34 -11 2 C-3.57142857 -1.57142857 -3.57142857 -1.57142857 0 0 Z " fill="#DE8D24" transform="translate(197,134)"/>
<path d="M0 0 C1.670625 0.061875 1.670625 0.061875 3.375 0.125 C3.045 1.115 2.715 2.105 2.375 3.125 C0.08984375 4.07421875 0.08984375 4.07421875 -2.6875 4.8125 C-4.06615234 5.18955078 -4.06615234 5.18955078 -5.47265625 5.57421875 C-6.18292969 5.75597656 -6.89320313 5.93773437 -7.625 6.125 C-4.84462617 0.16705607 -4.84462617 0.16705607 0 0 Z " fill="#A5601E" transform="translate(169.625,294.875)"/>
<path d="M0 0 C0.66 0 1.32 0 2 0 C2 0.66 2 1.32 2 2 C2.66 2 3.32 2 4 2 C4 2.66 4 3.32 4 4 C4.66 4 5.32 4 6 4 C6 4.66 6 5.32 6 6 C6.66 6 7.32 6 8 6 C9.625 8 9.625 8 11 10 C10.67 10.66 10.34 11.32 10 12 C5.40493818 8.44984265 2.23545746 5.52289491 0 0 Z " fill="#9B4F1B" transform="translate(319,242)"/>
<path d="M0 0 C2.475 0.495 2.475 0.495 5 1 C5.33 1.99 5.66 2.98 6 4 C6.99 4.66 7.98 5.32 9 6 C9.8125 7.9375 9.8125 7.9375 10 10 C9.01 11.485 9.01 11.485 8 13 C7.4121875 11.453125 7.4121875 11.453125 6.8125 9.875 C5.14346023 5.93510324 2.8560623 3.16482579 0 0 Z " fill="#9D4111" transform="translate(278,277)"/>
<path d="M0 0 C1.125 1.625 1.125 1.625 2 4 C1.125 7.25 1.125 7.25 0 10 C0.66 10.33 1.32 10.66 2 11 C1.67 12.65 1.34 14.3 1 16 C0.34 15.67 -0.32 15.34 -1 15 C-1.02685412 12.68756208 -1.04632841 10.3750373 -1.0625 8.0625 C-1.07410156 6.77472656 -1.08570313 5.48695313 -1.09765625 4.16015625 C-1 1 -1 1 0 0 Z " fill="#F56706" transform="translate(157,319)"/>
<path d="M0 0 C4.68738665 0.90723613 9.34193744 1.9547267 14 3 C13.67 3.66 13.34 4.32 13 5 C8.02693484 4.50269348 4.36200187 3.44697666 0 1 C0 0.67 0 0.34 0 0 Z " fill="#C95414" transform="translate(208,255)"/>
<path d="M0 0 C4.19469571 0.59924224 8.00999834 1.57499941 12 3 C12 3.33 12 3.66 12 4 C3.42857143 4.28571429 3.42857143 4.28571429 0 2 C0 1.34 0 0.68 0 0 Z " fill="#AA5D1C" transform="translate(283,225)"/>
<path d="M0 0 C4.61513112 1.31860889 8.09897612 3.21355437 12 6 C11.01 6.495 11.01 6.495 10 7 C7.90625 6.29296875 7.90625 6.29296875 5.5 5.1875 C4.30890625 4.65189453 4.30890625 4.65189453 3.09375 4.10546875 C1 3 1 3 -1 1 C-0.67 0.67 -0.34 0.34 0 0 Z " fill="#954D17" transform="translate(305,233)"/>
<path d="M0 0 C0.66 0 1.32 0 2 0 C3.625 2 3.625 2 5 4 C4.67 4.66 4.34 5.32 4 6 C3.01 5.67 2.02 5.34 1 5 C1 5.66 1 6.32 1 7 C-1 6 -1 6 -1.75 4.0625 C-1.8325 3.381875 -1.915 2.70125 -2 2 C-1.34 1.34 -0.68 0.68 0 0 Z " fill="#FA8510" transform="translate(212,201)"/>
<path d="M0 0 C1.04770842 3.14312525 1.01720722 5.70921075 0.96875 8.9921875 C1.00645627 11.41481509 1.41325477 13.65301908 2 16 C1.01 16 0.02 16 -1 16 C-2.49697302 10.31150252 -1.3348044 5.58190932 0 0 Z " fill="#91410E" transform="translate(212,185)"/>
<path d="M0 0 C2.97 0 5.94 0 9 0 C9.33 0.66 9.66 1.32 10 2 C12.01669827 3.13350534 12.01669827 3.13350534 14 4 C9.03083364 3.48594831 4.70973649 2.76615118 0 1 C0 0.67 0 0.34 0 0 Z " fill="#90320C" transform="translate(190,355)"/>
<path d="M0 0 C4.76716839 0.581362 9.35901356 1.79974489 14 3 C10.95161559 3.92565097 8.53510031 4.04155806 5.375 3.6875 C4.59898437 3.60886719 3.82296875 3.53023438 3.0234375 3.44921875 C1 3 1 3 -1 1 C-0.67 0.67 -0.34 0.34 0 0 Z " fill="#994A14" transform="translate(203,309)"/>
<path d="M0 0 C0.66 0.33 1.32 0.66 2 1 C0.98823563 4.40320742 0.35156418 5.75725331 -2.625 7.8125 C-3.40875 8.204375 -4.1925 8.59625 -5 9 C-5.33 8.01 -5.66 7.02 -6 6 C-5.195625 5.38125 -4.39125 4.7625 -3.5625 4.125 C-0.96125481 2.25835959 -0.96125481 2.25835959 0 0 Z " fill="#AA611F" transform="translate(281,304)"/>
<path d="M0 0 C4.571279 0.54855348 8.67435795 1.41744803 13 3 C13 3.33 13 3.66 13 4 C11.02 4.33 9.04 4.66 7 5 C6.67 4.01 6.34 3.02 6 2 C4.02 2 2.04 2 0 2 C0 1.34 0 0.68 0 0 Z " fill="#924E18" transform="translate(294,126)"/>
<path d="M0 0 C-2.31 1.65 -4.62 3.3 -7 5 C-7.66 4.67 -8.32 4.34 -9 4 C-8 1 -8 1 -6.1875 -0.25 C-4 -1 -4 -1 0 0 Z " fill="#903210" transform="translate(315,344)"/>
<path d="M0 0 C2.64 0 5.28 0 8 0 C5.7448078 2.2551922 3.9952413 2.97723468 1 4 C0.01 4 -0.98 4 -2 4 C-2 3.34 -2 2.68 -2 2 C-1.34 2 -0.68 2 0 2 C0 1.34 0 0.68 0 0 Z " fill="#A23810" transform="translate(290,353)"/>
<path d="M0 0 C1.9375 0.6875 1.9375 0.6875 4 2 C4.75 4.625 4.75 4.625 5 7 C5.99 7.33 6.98 7.66 8 8 C7.34 8.66 6.68 9.32 6 10 C4.99421411 8.71283353 3.99553202 7.42011342 3 6.125 C2.443125 5.40570313 1.88625 4.68640625 1.3125 3.9453125 C0 2 0 2 0 0 Z " fill="#A25016" transform="translate(164,224)"/>
<path d="M0 0 C1 3 1 3 0.00390625 5.26171875 C-0.47175781 6.06222656 -0.94742187 6.86273438 -1.4375 7.6875 C-1.91058594 8.49574219 -2.38367188 9.30398437 -2.87109375 10.13671875 C-3.24363281 10.75160156 -3.61617188 11.36648437 -4 12 C-5.27351308 9.45297384 -4.80191925 8.5717055 -4.0625 5.875 C-3.86785156 5.15054688 -3.67320312 4.42609375 -3.47265625 3.6796875 C-3.31667969 3.12539062 -3.16070312 2.57109375 -3 2 C-2.01 2 -1.02 2 0 2 C0 1.34 0 0.68 0 0 Z " fill="#7C2C0C" transform="translate(328,168)"/>
<path d="M0 0 C1.65 0.33 3.3 0.66 5 1 C3.72485508 3.55028983 2.59658703 3.93081711 0 5 C-0.99 5 -1.98 5 -3 5 C-3 4.34 -3 3.68 -3 3 C-2.34 3 -1.68 3 -1 3 C-0.67 2.01 -0.34 1.02 0 0 Z " fill="#A53D11" transform="translate(301,348)"/>
<path d="M0 0 C0.66 0 1.32 0 2 0 C2.33 1.65 2.66 3.3 3 5 C3.66 5 4.32 5 5 5 C4.67 6.65 4.34 8.3 4 10 C1.997499 7.997499 1.06784629 6.593341 0 4 C0 2.68 0 1.36 0 0 Z " fill="#AD5D1B" transform="translate(160,214)"/>
<path d="M0 0 C1.29315061 0.95632999 2.58446853 1.91513851 3.875 2.875 C4.59429687 3.40867188 5.31359375 3.94234375 6.0546875 4.4921875 C8 6 8 6 10 8 C7.25 8.375 7.25 8.375 4 8 C0 3.15789474 0 3.15789474 0 0 Z " fill="#994811" transform="translate(214,201)"/>
<path d="M0 0 C0.33 0.66 0.66 1.32 1 2 C-0.25 5.0625 -0.25 5.0625 -2 8 C-2.99 8.33 -3.98 8.66 -5 9 C-3.375 2.25 -3.375 2.25 0 0 Z " fill="#BD7F36" transform="translate(167,157)"/>
<path d="M0 0 C0 0.99 0 1.98 0 3 C-1.65 3.33 -3.3 3.66 -5 4 C-5.33 4.99 -5.66 5.98 -6 7 C-6.33 6.34 -6.66 5.68 -7 5 C-4.53846154 1.18461538 -4.53846154 1.18461538 -1.8125 0.25 C-1.214375 0.1675 -0.61625 0.085 0 0 Z " fill="#F28A24" transform="translate(168,298)"/>
<path d="M0 0 C0.66 0.33 1.32 0.66 2 1 C0.25 8.75 0.25 8.75 -2 11 C-1 3.57142857 -1 3.57142857 0 0 Z " fill="#9D4114" transform="translate(335,309)"/>
<path d="M0 0 C0.66 0.33 1.32 0.66 2 1 C1.39816251 3.02045442 0.72693904 5.02111039 0 7 C-0.99 7.495 -0.99 7.495 -2 8 C-2 6.02 -2 4.04 -2 2 C-1.34 2 -0.68 2 0 2 C0 1.34 0 0.68 0 0 Z " fill="#AA4010" transform="translate(331,319)"/>
<path d="M0 0 C0.33 0.99 0.66 1.98 1 3 C1.66 2.34 2.32 1.68 3 1 C2.67 2.65 2.34 4.3 2 6 C1.01 6 0.02 6 -1 6 C-1.33 5.34 -1.66 4.68 -2 4 C-1.0625 1.875 -1.0625 1.875 0 0 Z " fill="#BA5F11" transform="translate(161,301)"/>
<path d="M0 0 C1.9375 0.6875 1.9375 0.6875 4 2 C4.75 4.625 4.75 4.625 5 7 C4.01 7.495 4.01 7.495 3 8 C0 3.375 0 3.375 0 0 Z " fill="#EF7612" transform="translate(326,252)"/>
<path d="M0 0 C2.31 0.33 4.62 0.66 7 1 C7 1.66 7 2.32 7 3 C8.65 3 10.3 3 12 3 C12 3.33 12 3.66 12 4 C7.12335991 4.34833144 4.22949995 3.41685712 0 1 C0 0.67 0 0.34 0 0 Z " fill="#EE8C20" transform="translate(241,216)"/>
<path d="M0 0 C3.31562557 0.55260426 6.15062207 1.16825705 9 3 C9.33 3.99 9.66 4.98 10 6 C6.66666667 4.33333333 3.33333333 2.66666667 0 1 C0 0.67 0 0.34 0 0 Z " fill="#E4832D" transform="translate(310,238)"/>
</svg>
