<?xml version="1.0" encoding="UTF-8"?>
<svg version="1.1" xmlns="http://www.w3.org/2000/svg" width="500" height="500">
<path d="M0 0 C2.80958473 2.80958473 3.90196215 4.38365911 4.53125 8.33984375 C4.42497262 20.57502738 4.42497262 20.57502738 -1 26 C-6.1778115 26.54393171 -10.87752673 26.22097462 -15.8125 24.5625 C-29.0194939 20.17396911 -45.49540232 20.95057472 -59 24 C-59 24.66 -59 25.32 -59 26 C-59.66 26 -60.32 26 -61 26 C-61.99159746 30.58143068 -61.99159746 30.58143068 -61.28955078 35.10522461 C-56.21136201 42.56675869 -40.61650054 43.08348229 -32.51953125 44.62304688 C-20.09748235 47.11424466 -7.29507454 50.61128542 0.3125 61.375 C6.35971234 70.48723777 5.98989096 81.70180391 4.5703125 92.16796875 C2.45273124 101.43565463 -3.09548908 108.36634141 -10.85546875 113.72265625 C-30.02235702 125.13899954 -58.342431 122.52768335 -79.36206055 117.68261719 C-86.06850445 115.98019282 -91.38195377 114.3142452 -95.109375 108.171875 C-97.11807947 103.27345533 -96.93690729 97.49707909 -95.08984375 92.57421875 C-93.16213716 89.18368659 -91.88286358 87.44856211 -88.33984375 85.6484375 C-83.88966132 84.78442547 -80.92303962 85.79940902 -76.6875 87.1875 C-54.35766938 94.07175279 -54.35766938 94.07175279 -31.8125 91.6875 C-28.38619199 89.8424144 -28.38619199 89.8424144 -26 87 C-25.37113168 82.90312866 -25.37113168 82.90312866 -26 79 C-30.05042935 74.64050174 -34.78637859 73.70380394 -40.375 72.4375 C-41.7053125 72.11845703 -41.7053125 72.11845703 -43.0625 71.79296875 C-48.35227499 70.54293547 -53.6544594 69.47946241 -59 68.5 C-67.92899909 66.78026895 -76.8370781 63.77013153 -84 58 C-84 57.34 -84 56.68 -84 56 C-84.66 56 -85.32 56 -86 56 C-87.4375 54.27734375 -87.4375 54.27734375 -89 51.9375 C-89.515625 51.18339844 -90.03125 50.42929688 -90.5625 49.65234375 C-93.69296692 43.87629202 -94.38963687 38.18802942 -94.375 31.75 C-94.37258301 30.63564575 -94.37258301 30.63564575 -94.37011719 29.4987793 C-94.1337675 18.80859023 -90.21702063 9.88346825 -82.5 2.4375 C-64.30789934 -12.76181516 -19.35801872 -14.43260567 0 0 Z " fill="#FA7F02" transform="translate(166,148)"/>
<path d="M0 0 C1.37095511 0.71885287 2.72633923 1.46837236 4.0625 2.25 C4.75601563 2.6315625 5.44953125 3.013125 6.1640625 3.40625 C7.81293795 4.32594148 9.44049839 5.28370117 11.0625 6.25 C11.825625 5.59 12.58875 4.93 13.375 4.25 C16.0625 2.25 16.0625 2.25 19.0625 2.25 C19.0625 1.59 19.0625 0.93 19.0625 0.25 C27.05328435 -2.79410832 36.92655558 -3.42803828 44.9375 -0.1875 C52.38688595 3.76608472 58.36708321 9.10283624 61.0625 17.25 C62.21448874 22.63190631 62.20733166 27.88055973 62.1953125 33.35546875 C62.19626923 34.31649002 62.19722595 35.27751129 62.19821167 36.26765442 C62.19888991 38.29066026 62.1970605 40.31366831 62.19287109 42.33666992 C62.1875002 45.43738659 62.19283717 48.53795958 62.19921875 51.63867188 C62.19855825 53.60677115 62.19727767 55.57487034 62.1953125 57.54296875 C62.19733673 58.47110886 62.19936096 59.39924896 62.20144653 60.35551453 C62.19671829 61.64749504 62.19671829 61.64749504 62.19189453 62.96557617 C62.19109894 63.72247238 62.19030334 64.47936859 62.18948364 65.25920105 C62.0625 67.25 62.0625 67.25 61.0625 70.25 C57.85441044 72.4629877 54.89183844 72.57713327 51.0625 72.625 C50.03125 72.65335937 49 72.68171875 47.9375 72.7109375 C45.0625 72.25 45.0625 72.25 42.91870117 70.82470703 C40.10759684 66.92546906 40.47840433 63.2898476 40.48828125 58.59375 C40.47411667 57.65446655 40.45995209 56.71518311 40.44535828 55.74743652 C40.4034527 52.74817466 40.38822113 49.74951338 40.375 46.75 C40.34591624 43.75076714 40.31132713 40.75168558 40.27250671 37.75256348 C40.25007808 35.88731721 40.23422302 34.02197768 40.22566223 32.15661621 C40.21511055 30.88509705 40.21511055 30.88509705 40.2043457 29.58789062 C40.20086624 28.84494751 40.19738678 28.10200439 40.19380188 27.33654785 C40.05626491 25.15091676 39.80469023 23.31365852 39.0625 21.25 C34.15421515 18.73600044 30.27488049 19.05371595 25.0625 20.25 C23.0092393 22.02722651 22.17675823 23.46542518 21.78414917 26.16134644 C21.65081666 28.58964861 21.62142107 31.00163105 21.62109375 33.43359375 C21.60788589 34.32611343 21.59467804 35.21863312 21.58106995 36.13819885 C21.54020754 38.98799759 21.51851759 41.8374748 21.5 44.6875 C21.4761781 47.53385571 21.44798846 50.37991006 21.40821838 53.22608948 C21.38395493 54.99562599 21.36902037 56.76532157 21.36460876 58.53501892 C21.31054383 62.82111457 21.24643728 66.43119055 19.0625 70.25 C15.50473788 72.62184142 13.78229393 72.54824394 9.5625 72.5625 C8.4178125 72.57925781 7.273125 72.59601563 6.09375 72.61328125 C3.0625 72.25 3.0625 72.25 1.39709473 70.99032593 C-0.25220621 68.83961971 -0.31482247 67.73027138 -0.32226562 65.04150391 C-0.33237671 64.19697662 -0.34248779 63.35244934 -0.35290527 62.48233032 C-0.34988403 61.57292694 -0.34686279 60.66352356 -0.34375 59.7265625 C-0.35458618 58.78823578 -0.36542236 57.84990906 -0.37658691 56.88314819 C-0.41089841 53.88036219 -0.42644912 50.8779564 -0.4375 47.875 C-0.45207139 43.92932172 -0.48577928 39.98449225 -0.53125 36.0390625 C-0.52822876 35.13370758 -0.52520752 34.22835266 -0.52209473 33.29556274 C-0.57932644 28.47960534 -0.75396097 25.13318621 -3.9375 21.25 C-7.87256934 18.95454289 -11.45755462 19.07431587 -15.9375 19.25 C-15.9375 19.91 -15.9375 20.57 -15.9375 21.25 C-16.5975 21.25 -17.2575 21.25 -17.9375 21.25 C-19.44133775 28.24050929 -20.11553508 35.06105172 -20.2109375 42.19140625 C-20.22207581 42.97260834 -20.23321411 43.75381042 -20.24468994 44.5586853 C-20.28365106 47.80647905 -20.31071472 51.05397728 -20.31835938 54.30200195 C-20.32783982 56.70316271 -20.36149202 59.10303356 -20.3984375 61.50390625 C-20.39339203 62.2382338 -20.38834656 62.97256134 -20.38314819 63.72914124 C-20.44679456 67.00083994 -20.49201897 68.77976351 -22.79150391 71.20703125 C-25.61176534 72.57769756 -27.80872181 72.68358903 -30.9375 72.6875 C-31.96875 72.70683594 -33 72.72617187 -34.0625 72.74609375 C-37.67829757 72.12217216 -38.64802295 71.06924617 -40.9375 68.25 C-41.5402832 65.78588867 -41.5402832 65.78588867 -41.67578125 62.98046875 C-41.73072754 61.91876465 -41.78567383 60.85706055 -41.84228516 59.76318359 C-41.99741841 54.03916428 -42.12349459 48.32097897 -42.12280273 42.59448242 C-42.12500885 40.55431824 -42.14330801 38.51468007 -42.16210938 36.47460938 C-42.17591454 27.08249845 -42.02997586 18.82273019 -36.9375 10.6875 C-36.421875 9.84058594 -35.90625 8.99367188 -35.375 8.12109375 C-34.900625 7.50363281 -34.42625 6.88617188 -33.9375 6.25 C-33.2775 6.25 -32.6175 6.25 -31.9375 6.25 C-31.9375 5.59 -31.9375 4.93 -31.9375 4.25 C-30.3345947 3.43501438 -28.73012722 2.62310073 -27.125 1.8125 C-26.23167969 1.36003906 -25.33835937 0.90757812 -24.41796875 0.44140625 C-17.09186404 -3.07743145 -7.47483356 -3.29202514 0 0 Z " fill="#E7E9EA" transform="translate(299.9375,288.75)"/>
<path d="M0 0 C6.19007029 0.10919639 6.19007029 0.10919639 9.8125 2.5 C13.90054947 8.90461083 15.56242827 15.47346637 17.1875 22.8125 C18.68106055 29.49979693 20.38633062 35.97880553 22.6875 42.4375 C23.37971404 40.41827655 24.06575354 38.39693729 24.75 36.375 C25.08064453 35.40276489 25.08064453 35.40276489 25.41796875 34.41088867 C26.85506997 30.12179295 28.16809416 25.81296379 29.40234375 21.4609375 C29.69810303 20.43492432 29.9938623 19.40891113 30.29858398 18.35180664 C30.88423399 16.30822431 31.45573874 14.26052711 32.01196289 12.20874023 C33.21941765 8.03279676 34.12380966 5.07647453 37.02734375 1.78515625 C40.17086838 0.19262175 42.23856041 -0.0351633 45.75 0.0625 C46.77222656 0.07539063 47.79445313 0.08828125 48.84765625 0.1015625 C53.402006 0.64031639 53.402006 0.64031639 55.6875 2.4375 C56.92578125 5.32421875 56.92578125 5.32421875 58 9.125 C58.41615757 10.56004357 58.83285886 11.99492953 59.25 13.4296875 C59.47429687 14.21956055 59.69859375 15.00943359 59.9296875 15.82324219 C60.77218963 18.7296574 61.6631567 21.61849083 62.5625 24.5078125 C62.88307373 25.54075439 63.20364746 26.57369629 63.53393555 27.63793945 C64.1722323 29.69413573 64.81169659 31.74996997 65.45239258 33.80541992 C65.88781372 35.22624878 65.88781372 35.22624878 66.33203125 36.67578125 C66.59346924 37.52180908 66.85490723 38.36783691 67.12426758 39.23950195 C67.6875 41.4375 67.6875 41.4375 67.6875 44.4375 C68.3475 44.4375 69.0075 44.4375 69.6875 44.4375 C69.80480469 43.63441406 69.92210937 42.83132812 70.04296875 42.00390625 C70.81583142 37.72739946 71.8814484 33.57219568 73 29.375 C73.22147705 28.54025146 73.4429541 27.70550293 73.67114258 26.84545898 C79.87169381 3.6918398 79.87169381 3.6918398 83.46875 1.20703125 C86.13899781 0.28090657 88.36266528 0.1366408 91.1875 0.125 C92.1259375 0.10824219 93.064375 0.09148437 94.03125 0.07421875 C97.07005053 0.48981941 98.42812173 1.41791424 100.6875 3.4375 C100.05698882 7.44659939 99.28447364 11.37234879 98.3125 15.3125 C98.07789063 16.27929688 97.84328125 17.24609375 97.6015625 18.2421875 C96.70502058 21.37625285 95.60745826 24.35310531 94.44140625 27.39306641 C93.25554355 30.60887413 92.31515345 33.89377327 91.375 37.1875 C90.94435567 38.66806922 90.51334979 40.1485333 90.08203125 41.62890625 C89.3621872 44.11043316 88.64269722 46.59206244 87.92333984 49.07373047 C87.14200762 51.75916592 86.35285107 54.44220683 85.5625 57.125 C85.20031372 58.38038574 85.20031372 58.38038574 84.83081055 59.66113281 C81.62560662 70.49939338 81.62560662 70.49939338 77.6875 74.4375 C72.17367276 75.59671414 66.09443209 76.05957963 60.6875 74.4375 C57.47552917 70.32273814 55.78296945 66.33460705 54.25 61.375 C52.29709384 55.17986623 50.06504661 49.1610371 47.60546875 43.14453125 C46.6875 40.4375 46.6875 40.4375 46.6875 36.4375 C46.0275 36.4375 45.3675 36.4375 44.6875 36.4375 C44.59082031 37.06398437 44.49414062 37.69046875 44.39453125 38.3359375 C43.39889847 42.70351998 41.87901388 46.84703551 40.375 51.0625 C40.05885742 51.95243652 39.74271484 52.84237305 39.41699219 53.75927734 C38.79070254 55.52091771 38.16329246 57.2821602 37.53466797 59.04296875 C36.81955192 61.06425355 36.12780272 63.09378286 35.44140625 65.125 C35.11011719 66.094375 34.77882813 67.06375 34.4375 68.0625 C34.16421875 68.87976563 33.8909375 69.69703125 33.609375 70.5390625 C32.6875 72.4375 32.6875 72.4375 29.6875 74.4375 C26.99229596 74.68540112 24.44463303 74.80767523 21.75 74.8125 C21.03392578 74.83699219 20.31785156 74.86148438 19.58007812 74.88671875 C16.25401761 74.90521399 14.2047423 74.85815607 11.57861328 72.72241211 C9.57418627 70.30059022 8.65081832 68.38295607 7.64453125 65.41796875 C7.31404785 64.44520996 6.98356445 63.47245117 6.64306641 62.47021484 C5.10623483 57.59271821 3.71289955 52.6854067 2.375 47.75 C0.54366618 41.06434615 -1.30701935 34.39133029 -3.3203125 27.7578125 C-3.64346436 26.68619873 -3.96661621 25.61458496 -4.29956055 24.51049805 C-4.9172272 22.47281686 -5.54323815 20.43763979 -6.17895508 18.40551758 C-7.84116305 12.88890044 -8.84294217 8.20687715 -8.3125 2.4375 C-5.56441738 -0.31058262 -3.83475466 0.0738288 0 0 Z " fill="#EAECED" transform="translate(344.3125,175.5625)"/>
<path d="M0 0 C2.16926659 3.25389988 2.24080049 4.13395957 2.1953125 7.88671875 C2.18886719 8.82451172 2.18242187 9.76230469 2.17578125 10.72851562 C2.15902344 11.70498047 2.14226562 12.68144531 2.125 13.6875 C2.11597656 14.67556641 2.10695312 15.66363281 2.09765625 16.68164062 C2.0740843 19.12133765 2.04118022 21.56054697 2 24 C3.75183594 23.27103516 3.75183594 23.27103516 5.5390625 22.52734375 C13.38352763 19.59904253 22.55690106 19.73669018 30.4375 22.5625 C38.68661663 26.50892125 43.35193224 31.59851793 46.97879028 39.93600464 C48.67148761 45.01470364 48.65713494 49.85018609 48.55859375 55.16015625 C48.55509666 56.82769203 48.55509666 56.82769203 48.55152893 58.52891541 C48.5418569 60.85586323 48.52022331 63.18278988 48.48706055 65.50952148 C48.43719769 69.0841725 48.42554713 72.65745269 48.41992188 76.23242188 C48.40585186 78.50001476 48.38965325 80.76759566 48.37109375 83.03515625 C48.3630497 84.64125511 48.3630497 84.64125511 48.35484314 86.27980042 C48.33885574 87.26520309 48.32286835 88.25060577 48.30639648 89.26586914 C48.29043678 90.56845421 48.29043678 90.56845421 48.27415466 91.89735413 C48 94 48 94 46 96 C43.12373171 96.22507384 40.37546976 96.32430406 37.5 96.3125 C36.71496094 96.32861328 35.92992187 96.34472656 35.12109375 96.36132812 C32.84375 96.36328125 32.84375 96.36328125 29 96 C26.9139283 92.87089246 26.75038744 92.16534931 26.74462891 88.60791016 C26.73766998 87.72334137 26.73071106 86.83877258 26.72354126 85.92739868 C26.72453827 84.97424774 26.72553528 84.0210968 26.7265625 83.0390625 C26.70627281 81.02082779 26.68542201 79.00259867 26.6640625 76.984375 C26.64146018 73.802361 26.62499185 70.62056716 26.61914062 67.43847656 C26.60961801 64.36743355 26.57584162 61.29738315 26.5390625 58.2265625 C26.54410797 57.27746002 26.54915344 56.32835754 26.55435181 55.35049438 C26.49031605 51.04930435 26.40086559 48.64616374 24.09130859 44.92333984 C20.7856395 41.88317394 18.6130051 41.76687809 14.1875 41.625 C13.14980469 41.57601562 12.11210937 41.52703125 11.04296875 41.4765625 C6.79859138 42.20666079 5.59971423 43.57967914 3 47 C2.29075066 50.31505121 2.34947369 53.55814742 2.3984375 56.9375 C2.39043121 57.89519287 2.38242493 58.85288574 2.37417603 59.83959961 C2.35112808 62.89349876 2.36056287 65.94606525 2.375 69 C2.37884959 72.05368484 2.3753938 75.10678159 2.35440063 78.16040039 C2.34232819 80.05798844 2.34495314 81.95574168 2.36410522 83.85327148 C2.34365264 88.68932259 2.25281584 92.12447146 -1 96 C-6.15263203 97.86067268 -12.79497844 97.63586392 -18 96 C-20.60881552 92.08677672 -20.28050236 88.78506236 -20.25878906 84.24584961 C-20.2622937 83.35129562 -20.26579834 82.45674164 -20.26940918 81.53507996 C-20.27822184 78.57408928 -20.27237945 75.61333691 -20.265625 72.65234375 C-20.26697166 70.5987595 -20.26891221 68.54517556 -20.27142334 66.49159241 C-20.27437387 62.18666551 -20.27007875 57.88182156 -20.26074219 53.5769043 C-20.24934056 48.04945503 -20.25591211 42.52219982 -20.26788712 36.99475765 C-20.27510149 32.75438464 -20.27281986 28.51405792 -20.26763153 24.27368355 C-20.26629423 22.23505188 -20.26794553 20.19641605 -20.27259064 18.15778923 C-20.2776497 15.31333087 -20.26995472 12.46919044 -20.25878906 9.62475586 C-20.26283752 8.7763916 -20.26688599 7.92802734 -20.27105713 7.05395508 C-20.2285294 1.2285294 -20.2285294 1.2285294 -18 -1 C-11.87027666 -2.75134953 -5.84205036 -2.58137109 0 0 Z " fill="#EEEFF0" transform="translate(204,154)"/>
<path d="M0 0 C9.08229161 6.41721763 14.65879057 14.24921696 16.8359375 25.1796875 C18.49673762 35.56672552 17.7284014 46.34839814 12.0234375 55.4921875 C6.02776678 63.52579556 -0.75228783 68.74519421 -10.3515625 71.6796875 C-10.97160156 71.87175781 -11.59164062 72.06382812 -12.23046875 72.26171875 C-23.02065578 74.38796187 -33.73760042 72.73905044 -43.0390625 66.9921875 C-51.62551778 60.83299873 -57.04308135 53.01647346 -59.3515625 42.6796875 C-60.24311163 30.05789909 -59.58992464 19.53723071 -52.3515625 8.6796875 C-51.6915625 8.6796875 -51.0315625 8.6796875 -50.3515625 8.6796875 C-50.08988281 8.0815625 -49.82820313 7.4834375 -49.55859375 6.8671875 C-46.33859044 1.0315828 -40.17596106 -1.63891347 -34.1015625 -3.6953125 C-22.32318106 -6.9248687 -10.80085502 -6.06426744 0 0 Z M-34.3515625 20.6796875 C-37.9271783 25.49342698 -38.9790744 30.19030517 -38.7578125 36.13671875 C-38.08536343 40.34599128 -36.3673722 43.95403922 -34.3515625 47.6796875 C-33.6915625 47.6796875 -33.0315625 47.6796875 -32.3515625 47.6796875 C-32.3515625 48.3396875 -32.3515625 48.9996875 -32.3515625 49.6796875 C-25.03032804 53.04745535 -20.29069951 54.37899409 -12.3515625 51.6796875 C-12.3515625 51.0196875 -12.3515625 50.3596875 -12.3515625 49.6796875 C-11.7534375 49.4321875 -11.1553125 49.1846875 -10.5390625 48.9296875 C-7.34400294 47.10393918 -5.77611497 44.87878937 -4.55078125 41.41796875 C-3.29470498 35.46359193 -2.83081202 30.35137608 -5.3515625 24.6796875 C-8.12893475 20.66338939 -10.64291003 17.24923832 -15.3515625 15.6796875 C-22.84182317 14.91314035 -29.13692658 14.70972828 -34.3515625 20.6796875 Z " fill="#EAECED" transform="translate(318.3515625,179.3203125)"/>
<path d="M0 0 C9.32985351 6.5846497 9.32985351 6.5846497 10.6171875 10.55859375 C10.71 11.14640625 10.8028125 11.73421875 10.8984375 12.33984375 C11.5584375 12.33984375 12.2184375 12.33984375 12.8984375 12.33984375 C16.58430481 20.40267849 18.43498698 28.47078976 16.8984375 37.33984375 C15.0195135 39.65384647 13.55313359 41.01249571 10.8984375 42.33984375 C7.83601429 42.4269615 4.79657285 42.45532835 1.734375 42.4375 C0.82716705 42.43608505 -0.08004089 42.4346701 -1.01473999 42.43321228 C-3.91871405 42.42760471 -6.82261165 42.41505093 -9.7265625 42.40234375 C-11.69270722 42.39732973 -13.65885315 42.39276665 -15.625 42.38867188 C-20.4505504 42.37763281 -25.27604347 42.3603631 -30.1015625 42.33984375 C-29.4415625 44.64984375 -28.7815625 46.95984375 -28.1015625 49.33984375 C-27.4415625 49.33984375 -26.7815625 49.33984375 -26.1015625 49.33984375 C-26.1015625 49.99984375 -26.1015625 50.65984375 -26.1015625 51.33984375 C-16.63189555 54.78335901 -7.76696542 54.20807307 1.42578125 50.21484375 C4.07609386 49.27697641 6.10912036 49.18016907 8.8984375 49.33984375 C9.5584375 50.65984375 10.2184375 51.97984375 10.8984375 53.33984375 C11.5584375 53.33984375 12.2184375 53.33984375 12.8984375 53.33984375 C12.8984375 56.63984375 12.8984375 59.93984375 12.8984375 63.33984375 C12.2384375 63.33984375 11.5784375 63.33984375 10.8984375 63.33984375 C10.65480469 63.95472656 10.41117187 64.56960938 10.16015625 65.203125 C7.91997027 68.99687648 3.9143432 69.94329751 -0.1015625 71.33984375 C-12.42502026 74.18371862 -25.51752555 72.86283224 -36.67578125 66.9453125 C-43.545856 62.39845143 -49.11984108 55.39129479 -51.1015625 47.33984375 C-53.14149019 33.76715165 -52.44816249 20.92644982 -44.4765625 9.27734375 C-34.90345339 -2.95628204 -13.93541751 -7.73883857 0 0 Z M-28.1015625 19.33984375 C-30.56381266 22.43229378 -30.56381266 22.43229378 -30.1015625 27.33984375 C-21.5215625 27.33984375 -12.9415625 27.33984375 -4.1015625 27.33984375 C-3.7715625 25.68984375 -3.4415625 24.03984375 -3.1015625 22.33984375 C-6.26495991 17.76332808 -6.26495991 17.76332808 -11.1015625 15.33984375 C-17.8322821 14.69530074 -22.83319097 14.61181802 -28.1015625 19.33984375 Z " fill="#E6E8EA" transform="translate(420.1015625,289.66015625)"/>
<path d="M0 0 C0.65550339 -0.00832352 1.31100677 -0.01664703 1.9863739 -0.02522278 C4.15918883 -0.04936975 6.33170368 -0.05810133 8.50463867 -0.06469727 C10.0143798 -0.07366166 11.52411999 -0.08278347 13.03385925 -0.09205627 C16.20228231 -0.10856269 19.37059951 -0.11624908 22.5390625 -0.11914062 C26.59472764 -0.12451936 30.64939428 -0.1621695 34.70477772 -0.20788479 C37.82496241 -0.2376666 40.94490732 -0.24486444 44.06522179 -0.24586678 C45.55994924 -0.25006869 47.05467743 -0.26250209 48.54926491 -0.28338432 C50.64425981 -0.31031914 52.73695017 -0.30546998 54.83203125 -0.29296875 C56.02290848 -0.2980394 57.21378571 -0.30311005 58.44075012 -0.30833435 C62.54622824 0.48796715 64.03106094 2.08406097 66.61010742 5.30639648 C67.27416992 8.24389648 67.27416992 8.24389648 67.23510742 11.30639648 C67.25444336 12.82233398 67.25444336 12.82233398 67.27416992 14.36889648 C66.33569964 18.52024737 65.04703665 19.7701834 61.61010742 22.30639648 C57.82102283 22.92111313 54.12337501 22.7779975 50.29760742 22.61889648 C49.27086914 22.59633789 48.24413086 22.5737793 47.1862793 22.55053711 C44.65938952 22.49177223 42.13550487 22.40967498 39.61010742 22.30639648 C39.61232803 23.15164383 39.61454865 23.99689117 39.61683655 24.86775208 C39.63686258 32.8282501 39.65209339 40.78873968 39.66191959 48.74925709 C39.66714113 52.84196356 39.67422559 56.93464924 39.68554688 61.02734375 C39.6964016 64.97602735 39.70238976 68.92469093 39.70498466 72.87338829 C39.70683424 74.38088992 39.71044592 75.88839044 39.71583748 77.39588356 C39.72308219 79.50515751 39.72409691 81.61434845 39.72363281 83.72363281 C39.72585342 84.92498367 39.72807404 86.12633453 39.73036194 87.36408997 C39.61010742 90.30639648 39.61010742 90.30639648 38.61010742 93.30639648 C34.9660549 95.73576483 33.01129043 95.63586991 28.67260742 95.68139648 C26.83375977 95.72393555 26.83375977 95.72393555 24.95776367 95.76733398 C20.95798227 95.21660562 20.07789375 94.41558984 17.61010742 91.30639648 C17.06420898 88.82495117 17.06420898 88.82495117 17.00073242 85.97827148 C16.96842529 84.88667725 16.93611816 83.79508301 16.90283203 82.67041016 C16.88873291 81.47778564 16.87463379 80.28516113 16.86010742 79.05639648 C16.83118408 77.81543213 16.80226074 76.57446777 16.77246094 75.29589844 C16.39144061 57.63922822 16.52285115 39.96572405 16.61010742 22.30639648 C16.00013916 22.32734375 15.3901709 22.34829102 14.76171875 22.36987305 C11.98218448 22.4533251 9.20291422 22.50514659 6.42260742 22.55639648 C5.46290039 22.58991211 4.50319336 22.62342773 3.5144043 22.65795898 C-0.84685113 22.71832238 -3.62890208 22.724083 -7.50708008 20.59545898 C-10.62621349 16.80331754 -10.54037728 13.0767615 -10.38989258 8.30639648 C-8.78012812 1.3720265 -6.98120015 0.06249826 0 0 Z " fill="#EAEBEC" transform="translate(163.389892578125,265.693603515625)"/>
<path d="M0 0 C1.01964844 -0.0309375 2.03929687 -0.061875 3.08984375 -0.09375 C6.16207509 0.51988885 7.86085095 1.31063131 10.01615906 3.59783936 C12.47557325 8.06884943 11.69896106 13.6939565 11.62109375 18.6484375 C11.61759666 20.5772728 11.61759666 20.5772728 11.61402893 22.54507446 C11.60787413 25.26380041 11.58523515 27.98169905 11.54956055 30.70019531 C11.50437893 34.16902678 11.48953831 37.63710833 11.48582363 41.10620689 C11.48030347 44.43289157 11.45691579 47.75932749 11.43359375 51.0859375 C11.42823105 52.32467621 11.42286835 53.56341492 11.41734314 54.83969116 C11.26085667 66.23851058 11.26085667 66.23851058 9.0625 71.5 C5.50473788 73.87184142 3.78229393 73.79824394 -0.4375 73.8125 C-1.5821875 73.82925781 -2.726875 73.84601563 -3.90625 73.86328125 C-6.9375 73.5 -6.9375 73.5 -8.60169983 72.38000488 C-10.56621083 69.61515251 -10.32605566 67.42550008 -10.34155273 64.05664062 C-10.34841599 63.4075322 -10.35527924 62.75842377 -10.36235046 62.08964539 C-10.38064555 59.94495749 -10.37677794 57.80099914 -10.37109375 55.65625 C-10.37565395 54.16556561 -10.38095904 52.67488332 -10.38697815 51.1842041 C-10.39591426 48.06037859 -10.39348023 44.93680867 -10.38354492 41.81298828 C-10.37204803 37.8076945 -10.39227406 33.80328139 -10.42146206 29.79810333 C-10.43979749 26.72001534 -10.43953712 23.6421395 -10.43382454 20.56401062 C-10.43367103 19.08720157 -10.43973986 17.61037841 -10.45211601 16.13362122 C-10.46697737 14.06963633 -10.45638855 12.0072925 -10.43920898 9.94335938 C-10.43904282 8.76882202 -10.43887665 7.59428467 -10.43870544 6.38415527 C-9.9375 3.5 -9.9375 3.5 -8.08363342 1.62658691 C-5.28311098 0.15648636 -3.15501832 0.03182868 0 0 Z " fill="#E6E8EA" transform="translate(238.9375,287.5)"/>
<path d="M0 0 C2.80958473 2.80958473 3.90196215 4.38365911 4.53125 8.33984375 C4.42497262 20.57502738 4.42497262 20.57502738 -1 26 C-8.15127109 26.75124464 -14.29375697 25.39712517 -21 23 C-21 22.67 -21 22.34 -21 22 C-14.07 22.495 -14.07 22.495 -7 23 C-6.505 21.515 -6.505 21.515 -6 20 C-5.34 20 -4.68 20 -4 20 C-4 20.99 -4 21.98 -4 23 C-3.34 23.33 -2.68 23.66 -2 24 C-1.67 22.35 -1.34 20.7 -1 19 C-0.34 19 0.32 19 1 19 C0.85879286 17.06215735 0.71187127 15.12473045 0.5625 13.1875 C0.48128906 12.10855469 0.40007812 11.02960938 0.31640625 9.91796875 C0.09787539 6.94010095 0.09787539 6.94010095 -1 4 C-3.50447516 2.78130071 -3.50447516 2.78130071 -6 2 C-6 1.01 -6 0.02 -6 -1 C-6.81984375 -1.03738281 -7.6396875 -1.07476562 -8.484375 -1.11328125 C-9.56203125 -1.17902344 -10.6396875 -1.24476563 -11.75 -1.3125 C-12.81734375 -1.37050781 -13.8846875 -1.42851562 -14.984375 -1.48828125 C-18 -2 -18 -2 -19.7265625 -3.51367188 C-22.98504806 -5.64400479 -25.52677922 -5.33896691 -29.390625 -5.29296875 C-30.44754547 -5.28660149 -30.44754547 -5.28660149 -31.52581787 -5.28010559 C-33.76760712 -5.26336538 -36.00848431 -5.22572404 -38.25 -5.1875 C-39.77342448 -5.17244704 -41.29686311 -5.1587597 -42.8203125 -5.14648438 C-46.54716941 -5.11347791 -50.27349563 -5.06172854 -54 -5 C-54 -4.67 -54 -4.34 -54 -4 C-60.98795036 -2.78213386 -67.94110263 -1.70588974 -75 -1 C-74 -3 -74 -3 -71.59375 -4.03515625 C-70.06234375 -4.54369141 -70.06234375 -4.54369141 -68.5 -5.0625 C-67.4996875 -5.40410156 -66.499375 -5.74570313 -65.46875 -6.09765625 C-47.14642587 -10.86393651 -15.99184765 -11.922916 0 0 Z " fill="#DA7A13" transform="translate(166,148)"/>
<path d="M0 0 C0.99 0.99 0.99 0.99 2 2 C0.60461746 2.05472088 -0.79140897 2.09311538 -2.1875 2.125 C-2.96480469 2.14820313 -3.74210937 2.17140625 -4.54296875 2.1953125 C-7 2 -7 2 -9.18554688 1 C-12.74573546 -0.26496638 -15.71264942 -0.22539722 -19.48828125 -0.1953125 C-20.19147995 -0.1924826 -20.89467865 -0.18965271 -21.6191864 -0.18673706 C-23.85046892 -0.17560151 -26.08134017 -0.15050997 -28.3125 -0.125 C-29.83137438 -0.1149616 -31.3502551 -0.10583726 -32.86914062 -0.09765625 C-36.57955921 -0.07568413 -40.28973942 -0.04120047 -44 0 C-44 0.33 -44 0.66 -44 1 C-50.98795036 2.21786614 -57.94110263 3.29411026 -65 4 C-64 2 -64 2 -61.59375 0.96484375 C-60.06234375 0.45630859 -60.06234375 0.45630859 -58.5 -0.0625 C-57.4996875 -0.40410156 -56.499375 -0.74570313 -55.46875 -1.09765625 C-38.41609423 -5.53365116 -16.91548352 -4.80153048 0 0 Z " fill="#B7691E" transform="translate(156,143)"/>
<path d="M0 0 C0.99 0 1.98 0 3 0 C3.125 5.75 3.125 5.75 2 8 C1.84876169 9.5195764 1.75118307 11.04472502 1.68359375 12.5703125 C1.64169922 13.46621094 1.59980469 14.36210937 1.55664062 15.28515625 C1.49766602 16.69087891 1.49766602 16.69087891 1.4375 18.125 C1.39431641 19.06988281 1.35113281 20.01476562 1.30664062 20.98828125 C1.20040928 23.32537092 1.09836824 25.6625683 1 28 C1.99 28.33 2.98 28.66 4 29 C5.17123968 31.40754823 5.92667437 33.62289675 6.4375 36.25 C6.7159375 37.11625 6.7159375 37.11625 7 38 C7.99 38.33 8.98 38.66 10 39 C10 39.66 10 40.32 10 41 C11.32 41.33 12.64 41.66 14 42 C14 42.66 14 43.32 14 44 C14.66 44 15.32 44 16 44 C16 44.66 16 45.32 16 46 C13.0280615 44.87548273 10.66559313 43.77706209 8 42 C8 41.34 8 40.68 8 40 C7.34 40 6.68 40 6 40 C4.5625 38.27734375 4.5625 38.27734375 3 35.9375 C2.484375 35.18339844 1.96875 34.42929688 1.4375 33.65234375 C-1.7699758 27.73420227 -2.32054392 22.07234178 -2.25 15.5 C-2.25773437 14.77941406 -2.26546875 14.05882812 -2.2734375 13.31640625 C-2.25609478 8.52114376 -1.50940686 4.55217941 0 0 Z " fill="#F3921E" transform="translate(74,164)"/>
<path d="M0 0 C2.10029538 0.55648852 4.20445007 1.09864876 6.3125 1.625 C7.29347656 1.87121094 8.27445313 2.11742187 9.28515625 2.37109375 C12.52018457 3.12050319 15.70250639 3.62528482 19 4 C19 4.33 19 4.66 19 5 C13.97874074 5.77916092 10.02296004 6.13016601 5 5 C5 4.34 5 3.68 5 3 C4.195625 3.020625 3.39125 3.04125 2.5625 3.0625 C0 3 0 3 -1 2 C-3.34987262 1.76472227 -5.70556039 1.58613583 -8.0625 1.4375 C-9.99802734 1.31181641 -9.99802734 1.31181641 -11.97265625 1.18359375 C-13.47119141 1.09271484 -13.47119141 1.09271484 -15 1 C-15.66 2.98 -16.32 4.96 -17 7 C-17.99 7 -18.98 7 -20 7 C-19.16095841 3.308217 -18.21615533 1.23322023 -15.625 -1.5625 C-9.97086487 -3.80465704 -5.63561166 -1.75133277 0 0 Z " fill="#CA7D29" transform="translate(91,236)"/>
<path d="M0 0 C10.82410555 0.2634185 20.71169018 4.00098282 29 11 C29.33 11.99 29.66 12.98 30 14 C29.01 14.495 29.01 14.495 28 15 C28 14.34 28 13.68 28 13 C27.34 13 26.68 13 26 13 C26 12.34 26 11.68 26 11 C23.525 10.505 23.525 10.505 21 10 C21 9.01 21 8.02 21 7 C20.21496094 6.97421875 19.42992187 6.9484375 18.62109375 6.921875 C10.86953127 6.50338574 5.6493546 5.6493546 0 0 Z " fill="#BC6D1D" transform="translate(134,194)"/>
<path d="M0 0 C0.433125 0.598125 0.86625 1.19625 1.3125 1.8125 C8.25089351 10.80671381 21.3987131 11.70970561 32 14 C27.3305102 17.0403312 22.92914822 15.68039887 17.6953125 14.828125 C11.56501222 13.45431563 5.07961145 11.79236332 1.19921875 6.58203125 C0 4 0 4 0 0 Z " fill="#D6831F" transform="translate(102,179)"/>
<path d="M0 0 C0.66 0 1.32 0 2 0 C2 0.99 2 1.98 2 3 C2.99 3.33 3.98 3.66 5 4 C6.17123968 6.40754823 6.92667437 8.62289675 7.4375 11.25 C7.623125 11.8275 7.80875 12.405 8 13 C8.99 13.33 9.98 13.66 11 14 C11 14.66 11 15.32 11 16 C12.32 16.33 13.64 16.66 15 17 C15 17.66 15 18.32 15 19 C15.66 19 16.32 19 17 19 C17 19.66 17 20.32 17 21 C14.0280615 19.87548273 11.66559313 18.77706209 9 17 C9 16.34 9 15.68 9 15 C8.34 15 7.68 15 7 15 C3.22910606 10.49893296 0.30693113 5.98515697 0 0 Z " fill="#C86D19" transform="translate(73,189)"/>
<path d="M0 0 C0.66 0 1.32 0 2 0 C2 0.99 2 1.98 2 3 C2.66 3.33 3.32 3.66 4 4 C4 3.01 4 2.02 4 1 C5.32 1 6.64 1 8 1 C6.125 4.875 6.125 4.875 5 6 C-2.15127109 6.75124464 -8.29375697 5.39712517 -15 3 C-15 2.67 -15 2.34 -15 2 C-8.07 2.495 -8.07 2.495 -1 3 C-0.67 2.01 -0.34 1.02 0 0 Z " fill="#D46D11" transform="translate(160,168)"/>
<path d="M0 0 C-1.32 0.99 -2.64 1.98 -4 3 C-3.67 3.66 -3.34 4.32 -3 5 C-4.175625 5.37125 -4.175625 5.37125 -5.375 5.75 C-8.13350832 6.72822087 -8.13350832 6.72822087 -9 9.0625 C-9.33 9.701875 -9.66 10.34125 -10 11 C-12.625 11.75 -12.625 11.75 -15 12 C-13.71437061 6.60035658 -11.37771597 3.29135402 -7 0 C-2.83783784 -1.41891892 -2.83783784 -1.41891892 0 0 Z " fill="#E18B19" transform="translate(95,147)"/>
<path d="M0 0 C0.33 0 0.66 0 1 0 C1 16.83 1 33.66 1 51 C-0.32 51.66 -1.64 52.32 -3 53 C-2.67 52.01 -2.34 51.02 -2 50 C-1.34 50 -0.68 50 0 50 C0 33.5 0 17 0 0 Z " fill="#B4B7B9" transform="translate(251,197)"/>
<path d="M0 0 C15.28795812 0.41884817 15.28795812 0.41884817 20 5 C20.66 6.32 21.32 7.64 22 9 C19.03 8.01 16.06 7.02 13 6 C13 5.01 13 4.02 13 3 C12.14535156 2.95101562 11.29070312 2.90203125 10.41015625 2.8515625 C8.75306641 2.73941406 8.75306641 2.73941406 7.0625 2.625 C5.96035156 2.55539063 4.85820312 2.48578125 3.72265625 2.4140625 C2.82417969 2.27742187 1.92570313 2.14078125 1 2 C0.67 1.34 0.34 0.68 0 0 Z " fill="#D4801A" transform="translate(147,144)"/>
<path d="M0 0 C-8.43115686 4.44371561 -15.69120137 4.44682233 -25 4 C-24.67 3.01 -24.34 2.02 -24 1 C-22.60587891 1.03480469 -22.60587891 1.03480469 -21.18359375 1.0703125 C-15.01740773 1.16032981 -5.40727744 -1.80242581 0 0 Z " fill="#E57218" transform="translate(153,263)"/>
<path d="M0 0 C0.33 0 0.66 0 1 0 C1.63401277 18.71511768 1.63401277 18.71511768 -2 27 C-2.66 27.33 -3.32 27.66 -4 28 C-3.88556397 25.9160597 -3.75804453 23.83283507 -3.625 21.75 C-3.55539063 20.58984375 -3.48578125 19.4296875 -3.4140625 18.234375 C-3.02502698 15.19549375 -2.36837604 13.65122859 -1 11 C-0.54724722 8.18503259 -0.54724722 8.18503259 -0.375 5.25 C-0.30023438 4.26515625 -0.22546875 3.2803125 -0.1484375 2.265625 C-0.09945312 1.51796875 -0.05046875 0.7703125 0 0 Z " fill="#A65514" transform="translate(170,221)"/>
<path d="M0 0 C1.22257108 0.64018267 2.43776218 1.29645167 3.625 2 C3.026875 2.144375 2.42875 2.28875 1.8125 2.4375 C0.06349596 2.8872439 -1.66177023 3.42892341 -3.375 4 C-3.705 2.68 -4.035 1.36 -4.375 0 C-14.92615843 -0.20772634 -14.92615843 -0.20772634 -25.375 1 C-18.16313052 -3.80791298 -7.78505075 -3.50823147 0 0 Z " fill="#8B8D8F" transform="translate(300.375,289)"/>
<path d="M0 0 C7.92 0 15.84 0 24 0 C24 0.66 24 1.32 24 2 C19.90996141 3.14982602 15.96822949 3.11094256 11.75 3.0625 C11.00492188 3.05798828 10.25984375 3.05347656 9.4921875 3.04882812 C7.6614236 3.03709246 5.83070127 3.0191585 4 3 C4 2.34 4 1.68 4 1 C2.68 0.67 1.36 0.34 0 0 Z " fill="#CA781F" transform="translate(111,241)"/>
<path d="M0 0 C0.66 0.33 1.32 0.66 2 1 C2.1875 3.375 2.1875 3.375 2 6 C-1.7367843 8.49118953 -3.74451819 8.2065226 -8.1875 8.125 C-9.45980469 8.10695313 -10.73210937 8.08890625 -12.04296875 8.0703125 C-13.50669922 8.03550781 -13.50669922 8.03550781 -15 8 C-15 7.67 -15 7.34 -15 7 C-9.555 6.505 -9.555 6.505 -4 6 C-3.67 4.35 -3.34 2.7 -3 1 C-2.01 0.67 -1.02 0.34 0 0 Z " fill="#B1B2B7" transform="translate(200,353)"/>
<path d="M0 0 C0.66 0 1.32 0 2 0 C2.33 0.66 2.66 1.32 3 2 C5.02463255 2.65213292 5.02463255 2.65213292 7 3 C6.67 3.66 6.34 4.32 6 5 C5.01 5 4.02 5 3 5 C3.99 5.928125 3.99 5.928125 5 6.875 C7 9 7 9 7 11 C5.35 11.33 3.7 11.66 2 12 C2 9.36 2 6.72 2 4 C1.01 3.67 0.02 3.34 -1 3 C-0.67 2.01 -0.34 1.02 0 0 Z " fill="#F6F7F9" transform="translate(416,305)"/>
<path d="M0 0 C1.32 0.66 2.64 1.32 4 2 C-3.11389522 10.81548975 -3.11389522 10.81548975 -8 12 C-8 10.68 -8 9.36 -8 8 C-5.36095629 6.58622659 -2.92879371 5.62759865 0 5 C0 3.35 0 1.7 0 0 Z " fill="#BB580F" transform="translate(161,250)"/>
<path d="M0 0 C0.33 0 0.66 0 1 0 C1.33 8.91 1.66 17.82 2 27 C2.66 27.33 3.32 27.66 4 28 C3.67 29.32 3.34 30.64 3 32 C1.51831055 30.91479492 1.51831055 30.91479492 0 29 C-0.34057617 25.99731445 -0.34057617 25.99731445 -0.29296875 22.36328125 C-0.2784668 20.41518555 -0.2784668 20.41518555 -0.26367188 18.42773438 C-0.23860585 17.05598361 -0.21321101 15.68423882 -0.1875 14.3125 C-0.1724502 12.92905076 -0.1587623 11.54558599 -0.14648438 10.16210938 C-0.11107223 6.77434793 -0.06168054 3.38736861 0 0 Z " fill="#C8CACD" transform="translate(181,328)"/>
<path d="M0 0 C1.61068359 0.41572266 1.61068359 0.41572266 3.25390625 0.83984375 C4.69005529 1.20592096 6.12625599 1.57179558 7.5625 1.9375 C8.26697266 2.11990234 8.97144531 2.30230469 9.69726562 2.49023438 C14.12137098 3.6115514 18.47055438 4.43456329 23 5 C23 5.33 23 5.66 23 6 C17.97874074 6.77916092 14.02296004 7.13016601 9 6 C9 5.34 9 4.68 9 4 C8.2575 4.04125 7.515 4.0825 6.75 4.125 C3.91241048 3.99601866 2.41226062 3.42948778 0 2 C0 1.34 0 0.68 0 0 Z " fill="#B2631D" transform="translate(87,235)"/>
<path d="M0 0 C0.99 0.33 1.98 0.66 3 1 C3.36551926 5.6603705 3.62058305 8.95142865 1.1875 13.0625 C-1 15 -1 15 -4 15 C-2.84826645 12.53199953 -1.95216435 10.95216435 0 9 C0.24253813 6.78927023 0.24253813 6.78927023 0.125 4.375 C0.09792969 3.14910156 0.09792969 3.14910156 0.0703125 1.8984375 C0.04710937 1.27195313 0.02390625 0.64546875 0 0 Z " fill="#C6751E" transform="translate(140,226)"/>
<path d="M0 0 C0.556875 0.226875 1.11375 0.45375 1.6875 0.6875 C1.3575 2.3375 1.0275 3.9875 0.6875 5.6875 C-1.6225 6.0175 -3.9325 6.3475 -6.3125 6.6875 C-6.6425 5.3675 -6.9725 4.0475 -7.3125 2.6875 C-2.88173077 -0.38942308 -2.88173077 -0.38942308 0 0 Z " fill="#DADBDD" transform="translate(349.3125,353.3125)"/>
<path d="M0 0 C1.6260287 0.06000106 3.25101549 0.1487885 4.875 0.25 C6.23238281 0.31960937 6.23238281 0.31960937 7.6171875 0.390625 C8.40351563 0.59171875 9.18984375 0.7928125 10 1 C11.1328125 2.984375 11.1328125 2.984375 12 5 C12.99 5.33 13.98 5.66 15 6 C9.3420806 6.55199214 6.61007163 5.0142776 2 2 C1.34 1.34 0.68 0.68 0 0 Z " fill="#D98421" transform="translate(134,194)"/>
<path d="M0 0 C0 0.33 0 0.66 0 1 C-0.59167969 1.06058594 -1.18335937 1.12117187 -1.79296875 1.18359375 C-5.90978208 1.62012371 -9.95544533 2.08671346 -14 3 C-14 3.66 -14 4.32 -14 5 C-14.66 5 -15.32 5 -16 5 C-16.33 6.65 -16.66 8.3 -17 10 C-17.33 10 -17.66 10 -18 10 C-17.67 7.36 -17.34 4.72 -17 2 C-11.21642935 -0.01167675 -6.09781001 -0.22084624 0 0 Z " fill="#A0410B" transform="translate(121,169)"/>
<path d="M0 0 C4.29 0 8.58 0 13 0 C13 0.66 13 1.32 13 2 C13.99 2.33 14.98 2.66 16 3 C12.23331402 4.3805087 9.55210827 3.59568159 5.75 2.5625 C4.13351563 2.13130859 4.13351563 2.13130859 2.484375 1.69140625 C1.25460938 1.34916016 1.25460938 1.34916016 0 1 C0 0.67 0 0.34 0 0 Z " fill="#AB5013" transform="translate(115,217)"/>
<path d="M0 0 C6.14154225 0.58490879 12.00679849 1.54066252 18 3 C15.3855194 4.74298707 14.22502294 5.02984389 11.0546875 4.609375 C10.00539063 4.32578125 8.95609375 4.0421875 7.875 3.75 C6.82054688 3.47671875 5.76609375 3.2034375 4.6796875 2.921875 C2 2 2 2 0 0 Z " fill="#BB6B21" transform="translate(116,190)"/>
<path d="M0 0 C8.57142857 -0.14285714 8.57142857 -0.14285714 12 1 C12 1.66 12 2.32 12 3 C8.37 3 4.74 3 1 3 C0.67 2.01 0.34 1.02 0 0 Z " fill="#F59020" transform="translate(103,241)"/>
<path d="M0 0 C3.96 0.33 7.92 0.66 12 1 C12 1.99 12 2.98 12 4 C13.32 4.33 14.64 4.66 16 5 C9.99666876 5.6319296 5.36595205 3.37544123 0 1 C0 0.67 0 0.34 0 0 Z " fill="#B95B13" transform="translate(90,210)"/>
<path d="M0 0 C2 3.75 2 3.75 2 6 C1.34 6 0.68 6 0 6 C-0.33 11.94 -0.66 17.88 -1 24 C-1.33 24 -1.66 24 -2 24 C-2.0544207 21.31222198 -2.09387266 18.62556788 -2.125 15.9375 C-2.14175781 15.18533203 -2.15851563 14.43316406 -2.17578125 13.65820312 C-2.21865121 8.70672291 -1.58399375 4.69585549 0 0 Z " fill="#97490C" transform="translate(74,164)"/>
<path d="M0 0 C0.66 0.33 1.32 0.66 2 1 C-0.24156923 4.36235385 -0.39172841 4.23460906 -4 5 C-4.99 5.66 -5.98 6.32 -7 7 C-7.99 6.34 -8.98 5.68 -10 5 C-3.375 1.125 -3.375 1.125 0 0 Z " fill="#F78B05" transform="translate(100,145)"/>
<path d="M0 0 C1.32 0.33 2.64 0.66 4 1 C3.67 2.65 3.34 4.3 3 6 C2.01 6.33 1.02 6.66 0 7 C-0.66 6.67 -1.32 6.34 -2 6 C-2 3 -2 3 0 1 C0 0.67 0 0.34 0 0 Z " fill="#C6C8CA" transform="translate(316,353)"/>
<path d="M0 0 C0.99 0 1.98 0 3 0 C2.343621 4.48525648 1.29925791 8.66914029 0 13 C-1.09658936 9.71023192 -0.79953138 8.28696233 0 5 C-0.66 5 -1.32 5 -2 5 C-2 4.01 -2 3.02 -2 2 C-1.34 2 -0.68 2 0 2 C0 1.34 0 0.68 0 0 Z " fill="#9CA0A2" transform="translate(427,229)"/>
<path d="M0 0 C-0.33 0.66 -0.66 1.32 -1 2 C-2.32 2 -3.64 2 -5 2 C-5.66 3.32 -6.32 4.64 -7 6 C-8.32 4.68 -9.64 3.36 -11 2 C-7.17679443 0.57741188 -4.08718695 -0.24042276 0 0 Z " fill="#F8F9FA" transform="translate(287,288)"/>
<path d="M0 0 C0.33 0 0.66 0 1 0 C1.33 1.65 1.66 3.3 2 5 C2.99 5.33 3.98 5.66 5 6 C5 6.99 5 7.98 5 9 C5.66 9.66 6.32 10.32 7 11 C2.25 10.25 2.25 10.25 0 8 C-0.26991906 5.31160615 -0.08737357 2.70858064 0 0 Z " fill="#BABBBD" transform="translate(154,276)"/>
<path d="M0 0 C1.32 0.33 2.64 0.66 4 1 C4 1.66 4 2.32 4 3 C5.32 3.33 6.64 3.66 8 4 C8 4.66 8 5.32 8 6 C8.66 6 9.32 6 10 6 C10 6.66 10 7.32 10 8 C7.0280615 6.87548273 4.66559313 5.77706209 2 4 C2 3.34 2 2.68 2 2 C1.34 2 0.68 2 0 2 C0 1.34 0 0.68 0 0 Z " fill="#B25B17" transform="translate(80,202)"/>
<path d="M0 0 C1.32 0.66 2.64 1.32 4 2 C3.67 4.31 3.34 6.62 3 9 C1.68 8.01 0.36 7.02 -1 6 C-0.67 4.02 -0.34 2.04 0 0 Z " fill="#F4F5F8" transform="translate(386,308)"/>
<path d="M0 0 C3.86648272 1.04097612 7.49461443 2.03698408 11 4 C11 4.66 11 5.32 11 6 C5.64951939 5.62671065 3.49087093 4.0042343 0 0 Z " fill="#A75516" transform="translate(73,258)"/>
<path d="M0 0 C2.9375 0.75 2.9375 0.75 6 2 C7 4 7 4 7 6 C6.34 6.66 5.68 7.32 5 8 C4.16382818 6.8562364 3.33113541 5.70992861 2.5 4.5625 C2.0359375 3.92441406 1.571875 3.28632813 1.09375 2.62890625 C0 1 0 1 0 0 Z " fill="#BABBBE" transform="translate(263,232)"/>
<path d="M0 0 C0.99 0.33 1.98 0.66 3 1 C3 2.32 3 3.64 3 5 C1.35 5.66 -0.3 6.32 -2 7 C-2.33 6.01 -2.66 5.02 -3 4 C-2.34 3.67 -1.68 3.34 -1 3 C-0.67 2.01 -0.34 1.02 0 0 Z " fill="#BABEC1" transform="translate(374,243)"/>
<path d="M0 0 C-2.77280706 3.08089673 -5.06326356 4.68775452 -9 6 C-9.33 5.01 -9.66 4.02 -10 3 C-6.48812804 0.59185923 -4.27343092 -0.36629408 0 0 Z " fill="#A7A8AA" transform="translate(322,243)"/>
<path d="M0 0 C0.33 0.66 0.66 1.32 1 2 C-0.65 4.31 -2.3 6.62 -4 9 C-4.66 7.68 -5.32 6.36 -6 5 C-4.02 3.35 -2.04 1.7 0 0 Z " fill="#A9ABAF" transform="translate(331,230)"/>
<path d="M0 0 C0.33 0 0.66 0 1 0 C1.12375 1.19625 1.2475 2.3925 1.375 3.625 C1.82325054 7.27596813 2.70446837 10.54524899 4 14 C3.01 14.495 3.01 14.495 2 15 C-0.02558881 11.65060119 -0.21738987 9.13037449 -0.125 5.25 C-0.09792969 3.77273437 -0.09792969 3.77273437 -0.0703125 2.265625 C-0.04710938 1.51796875 -0.02390625 0.7703125 0 0 Z " fill="#8F4716" transform="translate(70,243)"/>
<path d="M0 0 C1.32 0 2.64 0 4 0 C2.125 3.875 2.125 3.875 1 5 C-0.68608966 5.07205511 -2.37500659 5.08386068 -4.0625 5.0625 C-4.98160156 5.05347656 -5.90070313 5.04445312 -6.84765625 5.03515625 C-7.55792969 5.02355469 -8.26820313 5.01195312 -9 5 C-9 4.67 -9 4.34 -9 4 C-6.03 4 -3.06 4 0 4 C0 2.68 0 1.36 0 0 Z " fill="#A5500F" transform="translate(164,169)"/>
<path d="M0 0 C0.66 0.33 1.32 0.66 2 1 C0.73058503 4.91402949 -0.51167694 6.79072873 -4 9 C-3.46930939 5.17902761 -2.50298434 2.93828597 0 0 Z " fill="#ABACAF" transform="translate(379,295)"/>
<path d="M0 0 C-1.6210103 0.69685498 -3.24696066 1.38222861 -4.875 2.0625 C-5.77992188 2.44535156 -6.68484375 2.82820313 -7.6171875 3.22265625 C-10 4 -10 4 -12 3 C-10.10827237 0.58279247 -9.04144125 0.01036031 -6 -0.75 C-3 -1 -3 -1 0 0 Z " fill="#A94A11" transform="translate(153,263)"/>
<path d="M0 0 C0 3 0 3 -1.53125 4.60546875 C-2.1809375 5.12753906 -2.830625 5.64960938 -3.5 6.1875 C-4.1496875 6.71730469 -4.799375 7.24710938 -5.46875 7.79296875 C-5.9740625 8.19128906 -6.479375 8.58960938 -7 9 C-7.33 8.34 -7.66 7.68 -8 7 C-7.34 7 -6.68 7 -6 7 C-5.7525 6.401875 -5.505 5.80375 -5.25 5.1875 C-3.83629988 2.71352479 -2.34944617 1.56629745 0 0 Z " fill="#B2B3B4" transform="translate(274,181)"/>
<path d="M0 0 C0.99 0 1.98 0 3 0 C3.33 1.65 3.66 3.3 4 5 C2.35 5.33 0.7 5.66 -1 6 C-1.042721 4.33388095 -1.04063832 2.66617115 -1 1 C-0.67 0.67 -0.34 0.34 0 0 Z " fill="#EFF2F5" transform="translate(388,338)"/>
<path d="M0 0 C0.433125 0.598125 0.86625 1.19625 1.3125 1.8125 C2.77989559 3.71467946 4.26869038 5.34396471 6 7 C6.66 7.66 7.32 8.32 8 9 C5.6875 9.3125 5.6875 9.3125 3 9 C0.36439287 5.72821183 0 4.27931853 0 0 Z " fill="#B66315" transform="translate(102,179)"/>
<path d="M0 0 C0.66 0.66 1.32 1.32 2 2 C-0.90600261 3.25664978 -2.79604584 4 -6 4 C-6.33 3.01 -6.66 2.02 -7 1 C-3.625 0.375 -3.625 0.375 0 0 Z " fill="#E56F0B" transform="translate(137,218)"/>
<path d="M0 0 C0.33 0.99 0.66 1.98 1 3 C1.99 2.67 2.98 2.34 4 2 C6.6875 2.9375 6.6875 2.9375 9 4 C9 4.33 9 4.66 9 5 C2.47692308 5.36923077 2.47692308 5.36923077 0.0625 3.5 C-0.4634375 2.7575 -0.4634375 2.7575 -1 2 C-0.67 1.34 -0.34 0.68 0 0 Z " fill="#B1B2B5" transform="translate(356,245)"/>
<path d="M0 0 C1.32 0.33 2.64 0.66 4 1 C4.625 2.8125 4.625 2.8125 5 5 C4.01 6.485 4.01 6.485 3 8 C0 3.375 0 3.375 0 0 Z " fill="#B2B3B5" transform="translate(401,241)"/>
<path d="M0 0 C1.32 0.99 2.64 1.98 4 3 C2.68 3.99 1.36 4.98 0 6 C-0.66 5.67 -1.32 5.34 -2 5 C-1.34 3.35 -0.68 1.7 0 0 Z " fill="#ADAEB0" transform="translate(427,352)"/>
<path d="M0 0 C1.98 0.495 1.98 0.495 4 1 C3.67 2.65 3.34 4.3 3 6 C1.68 4.68 0.36 3.36 -1 2 C-0.67 1.34 -0.34 0.68 0 0 Z " fill="#BDBEC0" transform="translate(377,347)"/>
<path d="M0 0 C1.32 0 2.64 0 4 0 C3.67 0.66 3.34 1.32 3 2 C3.33 2.33 3.66 2.66 4 3 C4.33 3.66 4.66 4.32 5 5 C4.34 5.66 3.68 6.32 3 7 C0 3.375 0 3.375 0 0 Z " fill="#A7A8AA" transform="translate(371,340)"/>
<path d="M0 0 C1.98 0 3.96 0 6 0 C5.67 2.31 5.34 4.62 5 7 C1.125 2.25 1.125 2.25 0 0 Z " fill="#AEAEB0" transform="translate(295,308)"/>
<path d="M0 0 C0.6875 1.75 0.6875 1.75 1 4 C-0.3125 6.25 -0.3125 6.25 -2 8 C-2.66 8 -3.32 8 -4 8 C-2.25 2.25 -2.25 2.25 0 0 Z " fill="#AF6C1C" transform="translate(75,235)"/>
<path d="M0 0 C2.79872437 2.52788007 4.45773019 4.20411134 5 8 C2 7 2 7 0 4 C0 2.68 0 1.36 0 0 Z " fill="#AF6119" transform="translate(164,208)"/>
<path d="M0 0 C0.33 0.99 0.66 1.98 1 3 C-2.73487777 2.5020163 -4.81237635 2.12508244 -8 0 C-4.71023192 -1.09658936 -3.28696233 -0.79953138 0 0 Z " fill="#97979A" transform="translate(396,358)"/>
<path d="M0 0 C0.99 0.495 0.99 0.495 2 1 C2 1.66 2 2.32 2 3 C2.66 3 3.32 3 4 3 C4 3.66 4 4.32 4 5 C5.32 5.66 6.64 6.32 8 7 C5.03 6.505 5.03 6.505 2 6 C1.34 4.02 0.68 2.04 0 0 Z " fill="#9EA1A7" transform="translate(390,336)"/>
<path d="M0 0 C0.66 0 1.32 0 2 0 C2 0.99 2 1.98 2 3 C2.99 3.33 3.98 3.66 5 4 C4.67 4.99 4.34 5.98 4 7 C3.01 6.67 2.02 6.34 1 6 C0.67 4.02 0.34 2.04 0 0 Z " fill="#B86517" transform="translate(73,189)"/>
</svg>
